<svg width="475" height="485" viewBox="0 0 475 485" fill="none" xmlns="http://www.w3.org/2000/svg">
<path d="M48.7153 484.257C48.5953 483.945 48.3493 483.884 47.6663 483.994C47.1753 484.073 46.5273 484.032 46.2253 483.903C45.9233 483.774 44.6023 483.57 43.2883 483.45C40.6523 483.21 37.9343 482.594 36.3473 481.877C35.7793 481.621 35.0723 481.411 34.7763 481.411C34.4793 481.411 33.8143 481.185 33.2983 480.91C32.7833 480.635 32.2073 480.409 32.0193 480.409C31.8323 480.409 31.3903 480.184 31.0393 479.909C30.6883 479.633 30.2483 479.408 30.0623 479.408C29.8773 479.408 29.1053 479.074 28.3483 478.666C24.2283 476.447 20.6323 473.93 16.9713 470.704C14.2963 468.347 9.6893 462.852 8.3163 460.384C8.0483 459.902 7.6123 459.169 7.3463 458.756C6.2213 457.005 3.3183 450.803 3.3183 450.149C3.3183 449.923 3.0923 449.317 2.8153 448.803C2.5393 448.29 2.3123 447.606 2.3123 447.285C2.3123 446.963 2.0993 445.977 1.8373 445.093C1.1563 442.789 0.789297 438.821 0.841297 434.35C0.935297 426.339 0.870297 425.054 0.341297 424.527C0.146297 424.333 0.0502973 422.983 0.0502973 420.438C0.0502973 417.292 0.118297 416.583 0.444297 416.313C0.740297 416.068 0.837297 415.514 0.831297 414.092C0.827297 413.049 0.934297 362.971 1.0703 302.806C1.2183 236.872 1.2283 175.963 1.0933 149.484C0.971297 125.322 0.859297 98.7629 0.844297 90.4649C0.821297 77.1769 0.772297 75.3609 0.434297 75.2309C-0.136703 75.0129 -0.148703 52.3339 0.422297 51.8629C0.627297 51.6929 0.797297 51.3129 0.801297 51.0179C0.824297 49.3149 1.4103 45.2529 1.8273 43.9049C2.0943 43.0419 2.3163 41.9719 2.3213 41.5269C2.3263 41.0829 2.5483 40.2679 2.8153 39.7179C3.0823 39.1669 3.3093 38.4909 3.3183 38.2159C3.3273 37.9399 3.5533 37.2649 3.8213 36.7139C4.0883 36.1629 4.3103 35.5099 4.3153 35.2619C4.3203 35.0129 4.5423 34.3939 4.8093 33.8849C5.0763 33.3759 5.8393 31.8549 6.5063 30.5059C8.2873 26.8999 9.8763 24.3169 11.6453 22.1569C12.1123 21.5879 12.8333 20.6879 13.2483 20.1579C15.8203 16.8709 21.8073 11.6549 25.5633 9.42893C26.4913 8.87793 27.6403 8.17393 28.1163 7.86393C28.5923 7.55493 29.1313 7.30093 29.3143 7.30093C29.4963 7.30093 29.9333 7.07593 30.2853 6.79993C30.6363 6.52493 31.0893 6.29993 31.2903 6.29993C31.4923 6.29993 31.9443 6.07393 32.2963 5.79893C32.6473 5.52393 33.0743 5.29893 33.2453 5.29893C33.4153 5.29893 34.0203 5.08893 34.5883 4.83293C35.5813 4.38493 36.6733 3.97493 38.0093 3.54893C38.3553 3.43893 39.2033 3.15993 39.8953 2.92893C40.5863 2.69893 41.8873 2.35693 42.7853 2.17093C43.6843 1.98493 44.9293 1.71493 45.5513 1.57093C47.0003 1.23593 51.1493 0.762927 52.4963 0.779927C53.1253 0.787927 53.6573 0.644927 53.8463 0.416927C54.3173 -0.147073 61.0153 -0.135073 61.2333 0.429927C61.3633 0.767927 62.2583 0.821927 67.9843 0.836927C71.6153 0.845927 79.4503 0.937927 85.3953 1.04093C99.0603 1.27893 254.725 1.28493 283.111 1.04893C312.464 0.804927 321.238 0.803927 377.757 1.04593C412.352 1.19393 427.622 1.34193 428.412 1.53493C429.034 1.68693 430.391 1.93393 431.428 2.08493C432.465 2.23493 433.965 2.56893 434.76 2.82693C435.556 3.08493 436.489 3.29593 436.835 3.29593C437.181 3.29593 437.886 3.52093 438.401 3.79693C438.917 4.07193 439.627 4.29693 439.979 4.29693C440.33 4.29693 440.841 4.45093 441.113 4.63893C441.386 4.82693 441.892 5.06093 442.238 5.15893C442.831 5.32593 449.324 8.48193 450.407 9.12893C450.684 9.29393 452.161 10.3529 453.69 11.4829C457.839 14.5479 460.388 17.1819 464.546 22.6989C464.856 23.1099 465.284 23.7849 465.498 24.1979C465.711 24.6109 466.161 25.3989 466.498 25.9499C467.07 26.8849 468.244 29.2259 469.009 30.9559C469.191 31.3699 469.646 32.5519 470.018 33.5849C470.391 34.6169 470.854 35.8319 471.047 36.2839C471.24 36.7359 471.399 37.3839 471.399 37.7229C471.399 38.0619 471.616 38.9869 471.881 39.7789C472.146 40.5719 472.439 41.8959 472.532 42.7219C472.625 43.5479 472.888 44.8429 473.117 45.5999C473.501 46.8729 473.544 60.7899 473.69 230.087C473.777 330.798 473.857 413.827 473.867 414.595C473.88 415.536 474.013 416.099 474.276 416.316C474.851 416.791 474.848 421.711 474.273 421.931C473.957 422.052 473.881 422.493 473.892 424.148C473.916 427.542 473.419 438.107 473.154 439.857C473.018 440.752 472.749 442.563 472.555 443.881C472.361 445.199 472.022 446.809 471.801 447.457C471.58 448.105 471.399 448.945 471.399 449.322C471.399 449.7 471.246 450.231 471.059 450.503C470.872 450.774 470.641 451.334 470.546 451.747C470.359 452.556 470.067 453.209 468.255 456.879C465.91 461.63 463.907 464.376 459.852 468.402C457.432 470.803 453.137 474.402 452.69 474.402C452.485 474.402 450.304 475.917 450.148 476.167C450.067 476.297 449.799 476.404 449.552 476.404C449.305 476.404 448.898 476.629 448.648 476.905C448.398 477.18 448.013 477.408 447.792 477.411C447.572 477.414 447.109 477.637 446.763 477.906C446.417 478.175 445.965 478.399 445.757 478.403C445.55 478.407 445.041 478.634 444.626 478.907C444.211 479.181 443.7 479.405 443.491 479.406C443.282 479.407 442.688 479.633 442.172 479.909C441.656 480.184 441.036 480.41 440.793 480.411C440.551 480.412 440.013 480.636 439.598 480.91C439.184 481.184 438.505 481.409 438.09 481.411C437.675 481.412 436.997 481.59 436.582 481.805C436.168 482.02 435.093 482.35 434.194 482.539C433.295 482.728 432.051 482.995 431.428 483.133C428.548 483.771 423.257 483.912 404.153 483.856C350.963 483.702 118.029 483.681 117.699 483.83C117.491 483.924 116.446 483.969 115.375 483.932C113.779 483.875 113.401 483.935 113.274 484.264C113.138 484.618 112.331 484.665 106.386 484.665C100.498 484.665 99.6333 484.615 99.5013 484.271C99.3723 483.937 98.7553 483.878 95.3893 483.876C93.2113 483.875 88.8273 483.784 85.6473 483.674C77.7643 483.402 65.1123 483.407 60.3823 483.683C58.2393 483.809 55.8553 483.906 55.0833 483.899C54.1083 483.891 53.5803 484.006 53.3553 484.276C52.8743 484.853 48.9393 484.837 48.7153 484.257ZM194.246 393.41C194.799 393.352 196.829 393.18 198.758 393.028C200.687 392.877 202.667 392.603 203.157 392.42C203.648 392.238 204.556 392.017 205.174 391.93C205.793 391.843 206.472 391.623 206.683 391.442C206.894 391.26 207.379 391.038 207.761 390.947C208.667 390.733 211.612 387.851 212.091 386.71C212.296 386.221 212.578 385.751 212.719 385.665C212.859 385.578 212.979 385.261 212.985 384.959C212.991 384.658 213.172 383.96 213.388 383.41C213.603 382.859 213.928 381.282 214.11 379.905C214.721 375.28 215.015 373.409 215.506 371.019C215.774 369.711 215.993 368.279 215.992 367.837C215.991 367.395 216.206 366.099 216.469 364.958C216.732 363.817 217.028 362.151 217.128 361.256C217.228 360.361 217.408 359.369 217.529 359.051C217.65 358.733 217.876 357.381 218.03 356.047C218.185 354.713 218.469 353.242 218.66 352.777C218.851 352.313 219.007 351.402 219.007 350.752C219.007 350.103 219.233 348.69 219.51 347.614C219.786 346.537 220.015 345.195 220.017 344.632C220.019 344.069 220.244 342.764 220.515 341.731C220.787 340.698 221.012 339.361 221.014 338.758C221.016 338.156 221.234 336.691 221.497 335.504C221.761 334.317 222.089 332.444 222.226 331.343C222.545 328.789 222.921 327.415 223.749 325.772C225.06 323.171 227.293 322.335 232.582 322.465C238.104 322.601 249.976 322.564 252.316 322.403C253.56 322.318 256.501 322.134 258.852 321.995C261.202 321.856 263.448 321.62 263.844 321.47C264.239 321.32 265.766 321.127 267.237 321.042C268.709 320.958 270.268 320.745 270.703 320.57C271.138 320.394 272.382 320.168 273.467 320.067C274.552 319.966 276.176 319.673 277.075 319.417C277.974 319.161 279.138 318.952 279.661 318.952C280.185 318.952 281.021 318.782 281.52 318.574C282.02 318.367 283.006 318.09 283.712 317.96C285.247 317.678 287.97 317.003 289.018 316.646C289.433 316.505 290.394 316.245 291.155 316.069C291.915 315.893 292.958 315.568 293.472 315.348C293.986 315.127 294.608 314.943 294.855 314.938C295.101 314.933 295.755 314.712 296.308 314.446C296.861 314.18 297.54 313.955 297.817 313.945C298.093 313.936 298.772 313.711 299.325 313.445C299.878 313.179 300.578 312.957 300.881 312.953C301.184 312.948 301.5 312.834 301.583 312.7C301.667 312.566 302.267 312.296 302.918 312.1C303.569 311.904 304.441 311.563 304.855 311.344C305.27 311.124 305.751 310.944 305.925 310.943C306.098 310.942 306.662 310.716 307.178 310.441C307.694 310.165 308.302 309.94 308.529 309.94C308.756 309.94 309.08 309.774 309.249 309.571C309.418 309.368 309.937 309.131 310.402 309.045C310.867 308.958 311.373 308.737 311.525 308.553C311.678 308.37 312.163 308.144 312.603 308.051C313.043 307.958 313.572 307.739 313.78 307.564C313.987 307.389 314.44 307.161 314.785 307.057C315.131 306.953 315.683 306.657 316.013 306.401C316.343 306.145 316.777 305.935 316.979 305.935C317.181 305.935 317.633 305.71 317.985 305.434C318.336 305.159 318.828 304.934 319.078 304.934C319.327 304.934 319.601 304.823 319.685 304.687C319.769 304.551 320.653 304.034 321.648 303.537C322.643 303.041 323.911 302.365 324.464 302.037C325.017 301.708 325.752 301.298 326.098 301.126C326.443 300.953 327.348 300.388 328.109 299.869C328.869 299.351 329.564 298.927 329.652 298.926C329.741 298.926 331.042 298.111 332.543 297.114C334.045 296.118 335.456 295.189 335.68 295.049C336.595 294.478 337.592 293.767 338.567 292.99C339.134 292.537 339.673 292.167 339.765 292.167C339.856 292.167 340.786 291.491 341.83 290.665C342.874 289.839 343.805 289.162 343.9 289.16C343.994 289.159 344.571 288.695 345.182 288.13C345.793 287.565 347.377 286.248 348.702 285.204C352.444 282.253 361.729 272.852 365.188 268.513C368.193 264.742 368.967 263.704 370.593 261.265C371.077 260.538 371.784 259.481 372.164 258.914C372.544 258.347 372.855 257.782 372.855 257.658C372.855 257.535 373.043 257.279 373.271 257.09C373.5 256.901 373.847 256.409 374.043 255.996C374.238 255.583 374.669 254.794 374.999 254.244C375.33 253.693 375.772 252.904 375.982 252.491C376.193 252.078 376.468 251.571 376.594 251.365C376.72 251.158 376.948 250.708 377.1 250.364C377.252 250.019 377.473 249.569 377.59 249.362C377.832 248.938 378.575 247.337 379.391 245.482C379.694 244.794 380.158 243.78 380.422 243.229C380.685 242.679 380.901 242.059 380.902 241.853C380.902 241.646 381.062 241.173 381.257 240.802C381.451 240.43 381.791 239.506 382.013 238.749C382.234 237.992 382.526 237.304 382.663 237.22C382.799 237.136 382.915 236.707 382.919 236.268C382.924 235.829 383.146 235.019 383.414 234.468C383.681 233.917 383.903 233.211 383.908 232.897C383.913 232.584 384.143 231.687 384.419 230.904C384.696 230.12 384.927 229.025 384.933 228.469C384.939 227.914 385.115 227.009 385.324 226.458C385.532 225.907 385.808 224.168 385.937 222.593C386.066 221.019 386.311 219.329 386.482 218.839C386.988 217.388 386.893 205.268 386.354 202.457C386.119 201.234 385.927 199.762 385.927 199.186C385.927 198.609 385.704 197.3 385.431 196.277C385.157 195.254 384.931 194.075 384.928 193.657C384.925 193.239 384.696 192.256 384.419 191.473C384.143 190.689 383.916 189.731 383.916 189.344C383.916 188.957 383.69 188.198 383.414 187.658C383.137 187.118 382.907 186.39 382.902 186.041C382.897 185.691 382.675 184.954 382.408 184.404C382.141 183.853 381.919 183.205 381.914 182.963C381.909 182.722 381.679 182.104 381.402 181.59C381.126 181.077 380.9 180.415 380.9 180.12C380.9 179.825 380.737 179.449 380.539 179.285C380.34 179.121 380.102 178.629 380.008 178.191C379.915 177.753 379.695 177.226 379.519 177.019C379.343 176.813 379.119 176.362 379.02 176.018C378.757 175.099 376.2 169.971 374.745 167.444C374.051 166.239 373.311 164.944 373.1 164.566C372.89 164.187 372.155 163.033 371.468 162C370.781 160.967 370.105 159.939 369.966 159.715C369.827 159.491 369.176 158.533 368.52 157.587C362.13 148.376 354.059 139.023 346.25 131.781C339.218 125.26 334.388 121.439 326.604 116.244C322.737 113.662 322.678 113.624 321.167 112.742C320.63 112.428 319.851 111.953 319.436 111.686C319.021 111.419 318.286 110.991 317.802 110.734C317.318 110.477 316.413 109.981 315.791 109.631C315.169 109.281 313.991 108.642 313.174 108.21C312.357 107.778 311.565 107.327 311.414 107.208C311.263 107.088 310.857 106.907 310.512 106.805C310.166 106.703 309.713 106.473 309.506 106.293C309.299 106.114 308.823 105.891 308.448 105.798C308.073 105.705 307.638 105.474 307.48 105.284C307.322 105.095 306.813 104.869 306.347 104.782C305.882 104.695 305.377 104.474 305.224 104.291C305.071 104.108 304.587 103.88 304.147 103.785C303.707 103.69 303.047 103.402 302.68 103.143C302.313 102.885 301.789 102.674 300.002 101.923C299.786 101.923 299.149 101.704 298.587 101.437C297.639 100.986 296.983 100.73 294.674 99.9119C294.19 99.7409 293.33 99.3909 292.761 99.1339C292.193 98.8779 291.515 98.6649 291.253 98.6609C290.992 98.6559 290.569 98.4949 290.315 98.3029C290.06 98.1109 289.381 97.8769 288.806 97.7819C288.232 97.6879 287.618 97.4959 287.443 97.3549C287.268 97.2139 286.533 96.9519 285.809 96.7729C285.085 96.5929 284.041 96.2749 283.488 96.0659C282.935 95.8579 282.196 95.6819 281.847 95.6759C281.497 95.6699 280.988 95.5109 280.716 95.3219C280.443 95.1339 279.597 94.8579 278.837 94.7089C277.445 94.4359 275.569 93.9729 272.552 93.1559C270.766 92.6729 269.239 92.3519 266.102 91.8009C264.974 91.6029 263.58 91.3149 263.006 91.1609C262.432 91.0069 261.149 90.7779 260.155 90.6529C259.162 90.5279 257.501 90.2529 256.464 90.0419C255.427 89.8299 254.136 89.6569 253.594 89.6569C253.053 89.6569 251.639 89.4889 250.452 89.2829C245.825 88.4809 239.744 88.0619 231.576 87.9819C226.982 87.9359 222.966 88.0049 222.401 88.1379C221.848 88.2689 219.246 88.5029 216.619 88.6579C213.992 88.8139 211.447 89.0479 210.963 89.1779C210.479 89.3089 208.542 89.5799 206.659 89.7809C204.776 89.9809 202.931 90.2599 202.558 90.4019C202.185 90.5429 201.427 90.6579 200.873 90.6579C200.319 90.6579 198.94 90.8729 197.809 91.1349C196.679 91.3969 195.019 91.7249 194.12 91.8649C193.221 92.0039 192.033 92.2339 191.48 92.3749C190.927 92.5169 189.683 92.8129 188.715 93.0339C183.306 94.2679 182.4 94.4949 180.545 95.0809C179.923 95.2779 178.792 95.5889 178.031 95.7719C177.271 95.9559 176.309 96.2269 175.894 96.3759C174.686 96.8079 172.7 97.4269 171.73 97.6719C171.237 97.7969 170.502 98.0719 170.096 98.2819C169.69 98.4929 169.21 98.6659 169.028 98.6669C168.846 98.6679 168.167 98.8799 167.519 99.1379C166.872 99.3969 165.493 99.9159 164.456 100.292C163.419 100.668 162.271 101.132 161.904 101.324C161.537 101.516 161.106 101.672 160.945 101.672C160.785 101.672 160.011 101.964 159.224 102.32C157.84 102.947 157.152 103.253 155.029 104.184C152.338 105.365 150.987 105.998 147.739 107.6C143.097 109.889 139.287 111.908 138.795 112.339C138.577 112.53 138.292 112.687 138.161 112.687C138.031 112.687 137.248 113.134 136.421 113.681C135.595 114.228 134.795 114.678 133.183 115.695C133.031 115.698 132.35 116.064 131.67 116.509C130.989 116.954 130.058 117.543 129.602 117.818C128.481 118.495 121.959 122.955 120.087 124.326C119.257 124.933 118.013 125.83 117.321 126.321C115.708 127.464 113.142 129.403 111.54 130.689C110.848 131.244 109.095 132.616 107.643 133.738C106.191 134.861 104.89 135.908 104.752 136.067C104.614 136.225 103.647 137.044 102.604 137.887C100.54 139.554 99.1463 141.139 97.7133 143.447C97.5753 143.669 97.3533 144.021 97.2193 144.227C97.0853 144.434 96.7183 145.335 96.4033 146.23C95.6453 148.382 95.6163 151.969 96.3323 154.944C96.6083 156.089 96.8333 157.302 96.8333 157.64C96.8333 157.979 97.0513 159.07 97.3173 160.065C98.0993 162.988 98.3553 164.028 98.7323 165.827C98.9283 166.761 99.1973 167.728 99.3293 167.974C99.4623 168.22 99.6483 169.033 99.7443 169.779C99.8403 170.526 100.067 171.429 100.248 171.786C100.429 172.143 100.657 173.044 100.755 173.789C100.853 174.533 101.072 175.367 101.243 175.642C101.414 175.918 101.628 176.594 101.719 177.144C101.886 178.148 102.519 180.204 103.454 182.777C105.167 187.492 107.173 190.07 110.227 191.483C111.33 191.994 111.802 192.039 116.055 192.039C119.811 192.039 121.077 191.944 122.773 191.54C123.923 191.265 125.259 191.039 125.743 191.036C126.227 191.033 127.34 190.807 128.216 190.533C129.093 190.26 130.224 190.035 130.73 190.033C131.236 190.031 132.367 189.806 133.244 189.532C134.934 189.005 138.015 188.859 138.787 189.27C139.03 189.399 139.54 189.953 139.92 190.499C140.522 191.363 140.636 191.834 140.798 194.093C140.901 195.523 141.087 196.857 141.212 197.057C141.338 197.257 141.577 198.322 141.745 199.423C141.913 200.525 142.347 203.228 142.711 205.431C143.074 207.634 143.525 210.699 143.712 212.243C143.899 213.786 144.121 215.159 144.204 215.293C144.287 215.427 144.529 216.861 144.743 218.48C144.956 220.099 145.186 221.513 145.253 221.622C145.321 221.731 145.539 223.145 145.736 224.765C145.934 226.384 146.209 228.329 146.347 229.086C146.953 232.399 147.406 235.388 147.639 237.597C147.777 238.905 148.044 240.482 148.233 241.102C148.421 241.721 148.647 243.129 148.733 244.231C148.82 245.332 149.048 246.909 149.24 247.735C149.433 248.561 149.663 250.068 149.751 251.084C149.84 252.099 150.015 253.2 150.141 253.529C150.267 253.858 150.49 255.167 150.637 256.438C150.784 257.709 151.063 259.538 151.256 260.502C151.449 261.465 151.677 263.074 151.763 264.077C151.849 265.08 152.072 266.432 152.259 267.081C152.446 267.73 152.68 269.219 152.777 270.389C152.875 271.56 153.056 272.785 153.181 273.112C153.305 273.44 153.522 274.848 153.661 276.241C153.801 277.635 154.069 279.338 154.257 280.027C154.446 280.715 154.673 282.158 154.763 283.233C154.854 284.308 155.035 285.469 155.167 285.814C155.298 286.159 155.472 287.251 155.552 288.24C155.632 289.23 155.911 291.11 156.172 292.418C156.433 293.726 156.759 295.697 156.896 296.798C157.138 298.752 157.283 299.673 158.069 304.308C158.279 305.547 158.557 307.537 158.686 308.73C158.815 309.924 159.092 311.552 159.301 312.35C159.509 313.148 159.68 314.296 159.68 314.902C159.68 315.509 159.895 316.921 160.158 318.041C160.42 319.161 160.705 320.999 160.79 322.124C160.876 323.249 161.113 324.643 161.318 325.222C161.523 325.801 161.691 326.856 161.691 327.567C161.691 328.278 161.866 329.528 162.079 330.344C162.293 331.16 162.572 332.902 162.7 334.214C162.828 335.526 163.092 337.219 163.287 337.976C163.481 338.733 163.715 340.297 163.806 341.451C163.896 342.604 164.085 343.761 164.225 344.02C164.364 344.28 164.576 345.589 164.695 346.929C164.815 348.269 165.042 349.697 165.199 350.102C165.357 350.507 165.601 352.069 165.742 353.573C165.883 355.076 166.115 356.603 166.256 356.966C166.398 357.329 166.611 358.723 166.731 360.063C166.851 361.404 167.065 362.716 167.207 362.981C167.349 363.245 167.534 364.289 167.617 365.3C167.701 366.311 167.937 367.927 168.141 368.891C168.345 369.855 168.611 371.657 168.732 372.896C168.853 374.135 169.128 375.642 169.344 376.244C169.559 376.847 169.739 377.804 169.744 378.372C169.748 378.94 169.971 380.024 170.238 380.781C170.506 381.538 170.728 382.474 170.733 382.859C170.737 383.245 170.953 383.977 171.213 384.486C171.473 384.996 171.954 385.968 172.281 386.647C172.908 387.945 175.398 390.645 176.344 391.054C176.65 391.186 177.07 391.398 177.277 391.526C177.937 391.933 180.121 392.585 181.551 392.802C182.311 392.917 184.856 393.091 187.207 393.188C189.557 393.285 191.65 393.461 191.857 393.58C192.065 393.699 192.461 393.733 192.737 393.656C193.014 393.579 193.693 393.468 194.246 393.41Z" fill="#FD853A"/>
<path d="M233.962 275.157C232.754 274.427 231.895 271.167 232.576 269.899C232.712 269.647 232.937 268.431 233.078 267.196C233.218 265.961 233.504 264.544 233.712 264.048C233.92 263.552 234.094 262.551 234.099 261.824C234.103 261.097 234.326 259.882 234.593 259.125C234.861 258.368 235.088 257.185 235.099 256.496C235.109 255.808 235.286 254.794 235.492 254.244C235.698 253.693 235.981 252.183 236.122 250.887C236.263 249.592 236.543 248.142 236.743 247.665C236.943 247.188 237.107 246.276 237.107 245.639C237.107 245.001 237.333 243.691 237.61 242.729C237.886 241.766 238.117 240.358 238.123 239.6C238.13 238.843 238.304 237.772 238.511 237.222C238.719 236.671 238.992 235.124 239.118 233.783C239.244 232.443 239.468 231.123 239.615 230.849C239.763 230.575 239.991 229.219 240.124 227.835C240.256 226.451 240.482 225.099 240.626 224.831C240.77 224.563 240.997 223.211 241.129 221.827C241.262 220.443 241.493 219.081 241.644 218.8C241.795 218.519 242.018 217.198 242.139 215.865C242.261 214.532 242.535 212.825 242.75 212.072C242.965 211.32 243.14 210.123 243.14 209.413C243.14 208.703 243.316 207.629 243.531 207.027C243.745 206.424 244.022 204.805 244.146 203.428C244.269 202.051 244.546 200.432 244.761 199.83C244.976 199.227 245.151 198.439 245.149 198.077C245.147 197.092 246.371 194.76 247.307 193.97C248.884 192.636 250.567 192.426 256.087 192.874C256.64 192.919 258.619 193.042 260.486 193.149C262.352 193.255 264.445 193.485 265.136 193.66C265.828 193.836 267.242 194.062 268.279 194.163C269.316 194.264 270.504 194.486 270.918 194.655C271.333 194.825 272.401 195.046 273.291 195.146C274.181 195.246 275.2 195.478 275.556 195.662C275.913 195.845 276.768 196.075 277.458 196.172C278.147 196.269 278.94 196.491 279.22 196.665C279.499 196.839 280.196 197.061 280.768 197.157C281.34 197.253 282.016 197.489 282.27 197.681C282.525 197.873 282.961 198.034 283.24 198.038C283.519 198.043 284.141 198.257 284.623 198.514C285.105 198.771 285.858 199.059 286.298 199.155C286.738 199.252 287.223 199.48 287.376 199.663C287.529 199.847 288.034 200.068 288.499 200.155C288.964 200.241 289.477 200.471 289.639 200.665C289.8 200.859 290.264 201.09 290.669 201.179C291.075 201.268 291.406 201.435 291.406 201.551C291.406 201.667 291.824 201.9 292.335 202.067C292.845 202.235 293.383 202.471 293.529 202.591C294.064 203.031 295.707 204.054 295.879 204.054C296.162 204.055 298.915 206.005 300.85 207.576C302.741 209.11 305.484 212.246 305.484 212.872C305.484 213.079 305.71 213.535 305.987 213.885C306.263 214.235 306.489 214.707 306.489 214.934C306.489 215.161 306.701 215.819 306.96 216.396C307.218 216.974 307.502 218.347 307.59 219.449C307.678 220.55 307.867 221.872 308.01 222.386C308.185 223.013 308.188 223.476 308.019 223.789C307.881 224.047 307.69 225.034 307.594 225.983C307.498 226.933 307.21 228.102 306.955 228.582C306.699 229.062 306.489 229.738 306.488 230.084C306.487 230.43 306.261 231.051 305.987 231.464C305.712 231.877 305.487 232.463 305.486 232.766C305.485 233.069 305.343 233.407 305.17 233.517C304.997 233.627 304.516 234.372 304.101 235.174C303.686 235.975 303.149 236.809 302.907 237.027C302.665 237.246 302.467 237.535 302.467 237.671C302.467 238.77 290.34 251.033 287.693 252.473C287.448 252.551 286.797 253.061 286.247 253.608C285.697 254.155 285.134 254.614 284.996 254.628C284.858 254.641 284.235 255.035 283.613 255.502C282.991 255.97 282 256.667 281.411 257.05C280.821 257.434 279.755 258.171 279.04 258.687C278.325 259.203 277.609 259.625 275.918 260.627C275.643 260.627 274.463 261.305 273.42 262.063C273.275 262.168 272.483 262.592 271.66 263.005C270.837 263.418 269.894 263.953 269.565 264.194C269.235 264.435 268.772 264.632 268.535 264.632C268.299 264.632 267.9 264.857 267.65 265.133C267.4 265.408 267.003 265.633 266.768 265.633C266.533 265.633 265.447 266.083 264.356 266.633C263.264 267.184 262.187 267.634 261.962 267.635C261.737 267.635 261.415 267.802 261.245 268.005C261.076 268.208 260.525 268.449 260.021 268.541C259.516 268.634 258.833 268.919 258.504 269.174C258.174 269.429 257.594 269.638 257.215 269.638C256.836 269.638 256.387 269.805 256.218 270.007C256.049 270.21 255.498 270.447 254.993 270.533C254.488 270.619 253.615 270.904 253.053 271.166C252.491 271.427 251.808 271.641 251.535 271.641C251.263 271.641 250.596 271.866 250.053 272.142C249.511 272.417 248.821 272.642 248.519 272.642C248.218 272.642 247.478 272.865 246.875 273.137C246.273 273.41 245.463 273.635 245.076 273.638C244.689 273.641 244.04 273.814 243.635 274.023C243.229 274.232 242.358 274.466 241.699 274.542C241.04 274.619 240.105 274.837 239.621 275.027C238.327 275.535 234.724 275.618 233.962 275.157Z" fill="#FD853A"/>
</svg>
