<svg width="477" height="487" viewBox="0 0 477 487" fill="none" xmlns="http://www.w3.org/2000/svg">
<path d="M49.7153 485.257C49.5953 484.945 49.3493 484.884 48.6663 484.994C48.1753 485.073 47.5273 485.032 47.2253 484.903C46.9233 484.774 45.6023 484.57 44.2883 484.45C41.6523 484.21 38.9343 483.594 37.3473 482.877C36.7793 482.621 36.0723 482.411 35.7763 482.411C35.4793 482.411 34.8143 482.185 34.2983 481.91C33.7833 481.635 33.2073 481.409 33.0193 481.409C32.8323 481.409 32.3903 481.184 32.0393 480.909C31.6883 480.633 31.2483 480.408 31.0623 480.408C30.8773 480.408 30.1053 480.074 29.3483 479.666C25.2283 477.447 21.6323 474.93 17.9713 471.704C15.2963 469.347 10.6893 463.852 9.3163 461.384C9.0483 460.902 8.6123 460.169 8.3463 459.756C7.2213 458.005 4.3183 451.803 4.3183 451.149C4.3183 450.923 4.0923 450.317 3.8153 449.803C3.5393 449.29 3.3123 448.606 3.3123 448.285C3.3123 447.963 3.0993 446.977 2.8373 446.093C2.1563 443.789 1.7893 439.821 1.8413 435.35C1.9353 427.339 1.8703 426.054 1.3413 425.527C1.1463 425.333 1.0503 423.983 1.0503 421.438C1.0503 418.292 1.1183 417.583 1.4443 417.313C1.7403 417.068 1.8373 416.514 1.8313 415.092C1.8273 414.049 1.9343 363.971 2.0703 303.806C2.2183 237.872 2.2283 176.963 2.0933 150.484C1.9713 126.322 1.8593 99.7629 1.8443 91.4649C1.8213 78.1769 1.7723 76.3609 1.4343 76.2309C0.863297 76.0129 0.851297 53.3339 1.4223 52.8629C1.6273 52.6929 1.7973 52.3129 1.8013 52.0179C1.8243 50.3149 2.4103 46.2529 2.8273 44.9049C3.0943 44.0419 3.3163 42.9719 3.3213 42.5269C3.3263 42.0829 3.5483 41.2679 3.8153 40.7179C4.0823 40.1669 4.3093 39.4909 4.3183 39.2159C4.3273 38.9399 4.5533 38.2649 4.8213 37.7139C5.0883 37.1629 5.3103 36.5099 5.3153 36.2619C5.3203 36.0129 5.5423 35.3939 5.8093 34.8849C6.0763 34.3759 6.8393 32.8549 7.5063 31.5059C9.2873 27.8999 10.8763 25.3169 12.6453 23.1569C13.1123 22.5879 13.8333 21.6879 14.2483 21.1579C16.8203 17.8709 22.8073 12.6549 26.5633 10.4289C27.4913 9.87793 28.6403 9.17393 29.1163 8.86393C29.5923 8.55493 30.1313 8.30093 30.3143 8.30093C30.4963 8.30093 30.9333 8.07593 31.2853 7.79993C31.6363 7.52493 32.0893 7.29993 32.2903 7.29993C32.4923 7.29993 32.9443 7.07393 33.2963 6.79893C33.6473 6.52393 34.0743 6.29893 34.2453 6.29893C34.4153 6.29893 35.0203 6.08893 35.5883 5.83293C36.5813 5.38493 37.6733 4.97493 39.0093 4.54893C39.3553 4.43893 40.2033 4.15993 40.8953 3.92893C41.5863 3.69893 42.8873 3.35693 43.7853 3.17093C44.6843 2.98493 45.9293 2.71493 46.5513 2.57093C48.0003 2.23593 52.1493 1.76293 53.4963 1.77993C54.1253 1.78793 54.6573 1.64493 54.8463 1.41693C55.3173 0.852927 62.0153 0.864927 62.2333 1.42993C62.3633 1.76793 63.2583 1.82193 68.9843 1.83693C72.6153 1.84593 80.4503 1.93793 86.3953 2.04093C100.06 2.27893 255.725 2.28493 284.111 2.04893C313.464 1.80493 322.238 1.80393 378.757 2.04593C413.352 2.19393 428.622 2.34193 429.412 2.53493C430.034 2.68693 431.391 2.93393 432.428 3.08493C433.465 3.23493 434.965 3.56893 435.76 3.82693C436.556 4.08493 437.489 4.29593 437.835 4.29593C438.181 4.29593 438.886 4.52093 439.401 4.79693C439.917 5.07193 440.627 5.29693 440.979 5.29693C441.33 5.29693 441.841 5.45093 442.113 5.63893C442.386 5.82693 442.892 6.06093 443.238 6.15893C443.831 6.32593 450.324 9.48193 451.407 10.1289C451.684 10.2939 453.161 11.3529 454.69 12.4829C458.839 15.5479 461.388 18.1819 465.546 23.6989C465.856 24.1099 466.284 24.7849 466.498 25.1979C466.711 25.6109 467.161 26.3989 467.498 26.9499C468.07 27.8849 469.244 30.2259 470.009 31.9559C470.191 32.3699 470.646 33.5519 471.018 34.5849C471.391 35.6169 471.854 36.8319 472.047 37.2839C472.24 37.7359 472.399 38.3839 472.399 38.7229C472.399 39.0619 472.616 39.9869 472.881 40.7789C473.146 41.5719 473.439 42.8959 473.532 43.7219C473.625 44.5479 473.888 45.8429 474.117 46.5999C474.501 47.8729 474.544 61.7899 474.69 231.087C474.777 331.798 474.857 414.827 474.867 415.595C474.88 416.536 475.013 417.099 475.276 417.316C475.851 417.791 475.848 422.711 475.273 422.931C474.957 423.052 474.881 423.493 474.892 425.148C474.916 428.542 474.419 439.107 474.154 440.857C474.018 441.752 473.749 443.563 473.555 444.881C473.361 446.199 473.022 447.809 472.801 448.457C472.58 449.105 472.399 449.945 472.399 450.322C472.399 450.7 472.246 451.231 472.059 451.503C471.872 451.774 471.641 452.334 471.546 452.747C471.359 453.556 471.067 454.209 469.255 457.879C466.91 462.63 464.907 465.376 460.852 469.402C458.432 471.803 454.137 475.402 453.69 475.402C453.485 475.402 451.304 476.917 451.148 477.167C451.067 477.297 450.799 477.404 450.552 477.404C450.305 477.404 449.898 477.629 449.648 477.905C449.398 478.18 449.013 478.408 448.792 478.411C448.572 478.414 448.109 478.637 447.763 478.906C447.417 479.175 446.965 479.399 446.757 479.403C446.55 479.407 446.041 479.634 445.626 479.907C445.211 480.181 444.7 480.405 444.491 480.406C444.282 480.407 443.688 480.633 443.172 480.909C442.656 481.184 442.036 481.41 441.793 481.411C441.551 481.412 441.013 481.636 440.598 481.91C440.184 482.184 439.505 482.409 439.09 482.411C438.675 482.412 437.997 482.59 437.582 482.805C437.168 483.02 436.093 483.35 435.194 483.539C434.295 483.728 433.051 483.995 432.428 484.133C429.548 484.771 424.257 484.912 405.153 484.856C351.963 484.702 119.029 484.681 118.699 484.83C118.491 484.924 117.446 484.969 116.375 484.932C114.779 484.875 114.401 484.935 114.274 485.264C114.138 485.618 113.331 485.665 107.386 485.665C101.498 485.665 100.633 485.615 100.501 485.271C100.372 484.937 99.7553 484.878 96.3893 484.876C94.2113 484.875 89.8273 484.784 86.6473 484.674C78.7643 484.402 66.1123 484.407 61.3823 484.683C59.2393 484.809 56.8553 484.906 56.0833 484.899C55.1083 484.891 54.5803 485.006 54.3553 485.276C53.8743 485.853 49.9393 485.837 49.7153 485.257ZM195.246 394.41C195.799 394.352 197.829 394.18 199.758 394.028C201.687 393.877 203.667 393.603 204.157 393.42C204.648 393.238 205.556 393.017 206.174 392.93C206.793 392.843 207.472 392.623 207.683 392.442C207.894 392.26 208.379 392.038 208.761 391.947C209.667 391.733 212.612 388.851 213.091 387.71C213.296 387.221 213.578 386.751 213.719 386.665C213.859 386.578 213.979 386.261 213.985 385.959C213.991 385.658 214.172 384.96 214.388 384.41C214.603 383.859 214.928 382.282 215.11 380.905C215.721 376.28 216.015 374.409 216.506 372.019C216.774 370.711 216.993 369.279 216.992 368.837C216.991 368.395 217.206 367.099 217.469 365.958C217.732 364.817 218.028 363.151 218.128 362.256C218.228 361.361 218.408 360.369 218.529 360.051C218.65 359.733 218.876 358.381 219.03 357.047C219.185 355.713 219.469 354.242 219.66 353.777C219.851 353.313 220.007 352.402 220.007 351.752C220.007 351.103 220.233 349.69 220.51 348.614C220.786 347.537 221.015 346.195 221.017 345.632C221.019 345.069 221.244 343.764 221.515 342.731C221.787 341.698 222.012 340.361 222.014 339.758C222.016 339.156 222.234 337.691 222.497 336.504C222.761 335.317 223.089 333.444 223.226 332.343C223.545 329.789 223.921 328.415 224.749 326.772C226.06 324.171 228.293 323.335 233.582 323.465C239.104 323.601 250.976 323.564 253.316 323.403C254.56 323.318 257.501 323.134 259.852 322.995C262.202 322.856 264.448 322.62 264.844 322.47C265.239 322.32 266.766 322.127 268.237 322.042C269.709 321.958 271.268 321.745 271.703 321.57C272.138 321.394 273.382 321.168 274.467 321.067C275.552 320.966 277.176 320.673 278.075 320.417C278.974 320.161 280.138 319.952 280.661 319.952C281.185 319.952 282.021 319.782 282.52 319.574C283.02 319.367 284.006 319.09 284.712 318.96C286.247 318.678 288.97 318.003 290.018 317.646C290.433 317.505 291.394 317.245 292.155 317.069C292.915 316.893 293.958 316.568 294.472 316.348C294.986 316.127 295.608 315.943 295.855 315.938C296.101 315.933 296.755 315.712 297.308 315.446C297.861 315.18 298.54 314.955 298.817 314.945C299.093 314.936 299.772 314.711 300.325 314.445C300.878 314.179 301.578 313.957 301.881 313.953C302.184 313.948 302.5 313.834 302.583 313.7C302.667 313.566 303.267 313.296 303.918 313.1C304.569 312.904 305.441 312.563 305.855 312.344C306.27 312.124 306.751 311.944 306.925 311.943C307.098 311.942 307.662 311.716 308.178 311.441C308.694 311.165 309.302 310.94 309.529 310.94C309.756 310.94 310.08 310.774 310.249 310.571C310.418 310.368 310.937 310.131 311.402 310.045C311.867 309.958 312.373 309.737 312.525 309.553C312.678 309.37 313.163 309.144 313.603 309.051C314.043 308.958 314.572 308.739 314.78 308.564C314.987 308.389 315.44 308.161 315.785 308.057C316.131 307.953 316.683 307.657 317.013 307.401C317.343 307.145 317.777 306.935 317.979 306.935C318.181 306.935 318.633 306.71 318.985 306.434C319.336 306.159 319.828 305.934 320.078 305.934C320.327 305.934 320.601 305.823 320.685 305.687C320.769 305.551 321.653 305.034 322.648 304.537C323.643 304.041 324.911 303.365 325.464 303.037C326.017 302.708 326.752 302.298 327.098 302.126C327.443 301.953 328.348 301.388 329.109 300.869C329.869 300.351 330.564 299.927 330.652 299.926C330.741 299.926 332.042 299.111 333.543 298.114C335.045 297.118 336.456 296.189 336.68 296.049C337.595 295.478 338.592 294.767 339.567 293.99C340.134 293.537 340.673 293.167 340.765 293.167C340.856 293.167 341.786 292.491 342.83 291.665C343.874 290.839 344.805 290.162 344.9 290.16C344.994 290.159 345.571 289.695 346.182 289.13C346.793 288.565 348.377 287.248 349.702 286.204C353.444 283.253 362.729 273.852 366.188 269.513C369.193 265.742 369.967 264.704 371.593 262.265C372.077 261.538 372.784 260.481 373.164 259.914C373.544 259.347 373.855 258.782 373.855 258.658C373.855 258.535 374.043 258.279 374.271 258.09C374.5 257.901 374.847 257.409 375.043 256.996C375.238 256.583 375.669 255.794 375.999 255.244C376.33 254.693 376.772 253.904 376.982 253.491C377.193 253.078 377.468 252.571 377.594 252.365C377.72 252.158 377.948 251.708 378.1 251.364C378.252 251.019 378.473 250.569 378.59 250.362C378.832 249.938 379.575 248.337 380.391 246.482C380.694 245.794 381.158 244.78 381.422 244.229C381.685 243.679 381.901 243.059 381.902 242.853C381.902 242.646 382.062 242.173 382.257 241.802C382.451 241.43 382.791 240.506 383.013 239.749C383.234 238.992 383.526 238.304 383.663 238.22C383.799 238.136 383.915 237.707 383.919 237.268C383.924 236.829 384.146 236.019 384.414 235.468C384.681 234.917 384.903 234.211 384.908 233.897C384.913 233.584 385.143 232.687 385.419 231.904C385.696 231.12 385.927 230.025 385.933 229.469C385.939 228.914 386.115 228.009 386.324 227.458C386.532 226.907 386.808 225.168 386.937 223.593C387.066 222.019 387.311 220.329 387.482 219.839C387.988 218.388 387.893 206.268 387.354 203.457C387.119 202.234 386.927 200.762 386.927 200.186C386.927 199.609 386.704 198.3 386.431 197.277C386.157 196.254 385.931 195.075 385.928 194.657C385.925 194.239 385.696 193.256 385.419 192.473C385.143 191.689 384.916 190.731 384.916 190.344C384.916 189.957 384.69 189.198 384.414 188.658C384.137 188.118 383.907 187.39 383.902 187.041C383.897 186.691 383.675 185.954 383.408 185.404C383.141 184.853 382.919 184.205 382.914 183.963C382.909 183.722 382.679 183.104 382.402 182.59C382.126 182.077 381.9 181.415 381.9 181.12C381.9 180.825 381.737 180.449 381.539 180.285C381.34 180.121 381.102 179.629 381.008 179.191C380.915 178.753 380.695 178.226 380.519 178.019C380.343 177.813 380.119 177.362 380.02 177.018C379.757 176.099 377.2 170.971 375.745 168.444C375.051 167.239 374.311 165.944 374.1 165.566C373.89 165.187 373.155 164.033 372.468 163C371.781 161.967 371.105 160.939 370.966 160.715C370.827 160.491 370.176 159.533 369.52 158.587C363.13 149.376 355.059 140.023 347.25 132.781C340.218 126.26 335.388 122.439 327.604 117.244C323.737 114.662 323.678 114.624 322.167 113.742C321.63 113.428 320.851 112.953 320.436 112.686C320.021 112.419 319.286 111.991 318.802 111.734C318.318 111.477 317.413 110.981 316.791 110.631C316.169 110.281 314.991 109.642 314.174 109.21C313.357 108.778 312.565 108.327 312.414 108.208C312.263 108.088 311.857 107.907 311.512 107.805C311.166 107.703 310.713 107.473 310.506 107.293C310.299 107.114 309.823 106.891 309.448 106.798C309.073 106.705 308.638 106.474 308.48 106.284C308.322 106.095 307.813 105.869 307.347 105.782C306.882 105.695 306.377 105.474 306.224 105.291C306.071 105.108 305.587 104.88 305.147 104.785C304.707 104.69 304.047 104.402 303.68 104.143C303.313 103.885 302.789 103.674 301.002 102.923C300.786 102.923 300.149 102.704 299.587 102.437C298.639 101.986 297.983 101.73 295.674 100.912C295.19 100.741 294.33 100.391 293.761 100.134C293.193 99.8779 292.515 99.6649 292.253 99.6609C291.992 99.6559 291.569 99.4949 291.315 99.3029C291.06 99.1109 290.381 98.8769 289.806 98.7819C289.232 98.6879 288.618 98.4959 288.443 98.3549C288.268 98.2139 287.533 97.9519 286.809 97.7729C286.085 97.5929 285.041 97.2749 284.488 97.0659C283.935 96.8579 283.196 96.6819 282.847 96.6759C282.497 96.6699 281.988 96.5109 281.716 96.3219C281.443 96.1339 280.597 95.8579 279.837 95.7089C278.445 95.4359 276.569 94.9729 273.552 94.1559C271.766 93.6729 270.239 93.3519 267.102 92.8009C265.974 92.6029 264.58 92.3149 264.006 92.1609C263.432 92.0069 262.149 91.7779 261.155 91.6529C260.162 91.5279 258.501 91.2529 257.464 91.0419C256.427 90.8299 255.136 90.6569 254.594 90.6569C254.053 90.6569 252.639 90.4889 251.452 90.2829C246.825 89.4809 240.744 89.0619 232.576 88.9819C227.982 88.9359 223.966 89.0049 223.401 89.1379C222.848 89.2689 220.246 89.5029 217.619 89.6579C214.992 89.8139 212.447 90.0479 211.963 90.1779C211.479 90.3089 209.542 90.5799 207.659 90.7809C205.776 90.9809 203.931 91.2599 203.558 91.4019C203.185 91.5429 202.427 91.6579 201.873 91.6579C201.319 91.6579 199.94 91.8729 198.809 92.1349C197.679 92.3969 196.019 92.7249 195.12 92.8649C194.221 93.0039 193.033 93.2339 192.48 93.3749C191.927 93.5169 190.683 93.8129 189.715 94.0339C184.306 95.2679 183.4 95.4949 181.545 96.0809C180.923 96.2779 179.792 96.5889 179.031 96.7719C178.271 96.9559 177.309 97.2269 176.894 97.3759C175.686 97.8079 173.7 98.4269 172.73 98.6719C172.237 98.7969 171.502 99.0719 171.096 99.2819C170.69 99.4929 170.21 99.6659 170.028 99.6669C169.846 99.6679 169.167 99.8799 168.519 100.138C167.872 100.397 166.493 100.916 165.456 101.292C164.419 101.668 163.271 102.132 162.904 102.324C162.537 102.516 162.106 102.672 161.945 102.672C161.785 102.672 161.011 102.964 160.224 103.32C158.84 103.947 158.152 104.253 156.029 105.184C153.338 106.365 151.987 106.998 148.739 108.6C144.097 110.889 140.287 112.908 139.795 113.339C139.577 113.53 139.292 113.687 139.161 113.687C139.031 113.687 138.248 114.134 137.421 114.681C136.595 115.228 135.795 115.678 134.183 116.695C134.031 116.698 133.35 117.064 132.67 117.509C131.989 117.954 131.058 118.543 130.602 118.818C129.481 119.495 122.959 123.955 121.087 125.326C120.257 125.933 119.013 126.83 118.321 127.321C116.708 128.464 114.142 130.403 112.54 131.689C111.848 132.244 110.095 133.616 108.643 134.738C107.191 135.861 105.89 136.908 105.752 137.067C105.614 137.225 104.647 138.044 103.604 138.887C101.54 140.554 100.146 142.139 98.7133 144.447C98.5753 144.669 98.3533 145.021 98.2193 145.227C98.0853 145.434 97.7183 146.335 97.4033 147.23C96.6453 149.382 96.6163 152.969 97.3323 155.944C97.6083 157.089 97.8333 158.302 97.8333 158.64C97.8333 158.979 98.0513 160.07 98.3173 161.065C99.0993 163.988 99.3553 165.028 99.7323 166.827C99.9283 167.761 100.197 168.728 100.329 168.974C100.462 169.22 100.648 170.033 100.744 170.779C100.84 171.526 101.067 172.429 101.248 172.786C101.429 173.143 101.657 174.044 101.755 174.789C101.853 175.533 102.072 176.367 102.243 176.642C102.414 176.918 102.628 177.594 102.719 178.144C102.886 179.148 103.519 181.204 104.454 183.777C106.167 188.492 108.173 191.07 111.227 192.483C112.33 192.994 112.802 193.039 117.055 193.039C120.811 193.039 122.077 192.944 123.773 192.54C124.923 192.265 126.259 192.039 126.743 192.036C127.227 192.033 128.34 191.807 129.216 191.533C130.093 191.26 131.224 191.035 131.73 191.033C132.236 191.031 133.367 190.806 134.244 190.532C135.934 190.005 139.015 189.859 139.787 190.27C140.03 190.399 140.54 190.953 140.92 191.499C141.522 192.363 141.636 192.834 141.798 195.093C141.901 196.523 142.087 197.857 142.212 198.057C142.338 198.257 142.577 199.322 142.745 200.423C142.913 201.525 143.347 204.228 143.711 206.431C144.074 208.634 144.525 211.699 144.712 213.243C144.899 214.786 145.121 216.159 145.204 216.293C145.287 216.427 145.529 217.861 145.743 219.48C145.956 221.099 146.186 222.513 146.253 222.622C146.321 222.731 146.539 224.145 146.736 225.765C146.934 227.384 147.209 229.329 147.347 230.086C147.953 233.399 148.406 236.388 148.639 238.597C148.777 239.905 149.044 241.482 149.233 242.102C149.421 242.721 149.647 244.129 149.733 245.231C149.82 246.332 150.048 247.909 150.24 248.735C150.433 249.561 150.663 251.068 150.751 252.084C150.84 253.099 151.015 254.2 151.141 254.529C151.267 254.858 151.49 256.167 151.637 257.438C151.784 258.709 152.063 260.538 152.256 261.502C152.449 262.465 152.677 264.074 152.763 265.077C152.849 266.08 153.072 267.432 153.259 268.081C153.446 268.73 153.68 270.219 153.777 271.389C153.875 272.56 154.056 273.785 154.181 274.112C154.305 274.44 154.522 275.848 154.661 277.241C154.801 278.635 155.069 280.338 155.257 281.027C155.446 281.715 155.673 283.158 155.763 284.233C155.854 285.308 156.035 286.469 156.167 286.814C156.298 287.159 156.472 288.251 156.552 289.24C156.632 290.23 156.911 292.11 157.172 293.418C157.433 294.726 157.759 296.697 157.896 297.798C158.138 299.752 158.283 300.673 159.069 305.308C159.279 306.547 159.557 308.537 159.686 309.73C159.815 310.924 160.092 312.552 160.301 313.35C160.509 314.148 160.68 315.296 160.68 315.902C160.68 316.509 160.895 317.921 161.158 319.041C161.42 320.161 161.705 321.999 161.79 323.124C161.876 324.249 162.113 325.643 162.318 326.222C162.523 326.801 162.691 327.856 162.691 328.567C162.691 329.278 162.866 330.528 163.079 331.344C163.293 332.16 163.572 333.902 163.7 335.214C163.828 336.526 164.092 338.219 164.287 338.976C164.481 339.733 164.715 341.297 164.806 342.451C164.896 343.604 165.085 344.761 165.225 345.02C165.364 345.28 165.576 346.589 165.695 347.929C165.815 349.269 166.042 350.697 166.199 351.102C166.357 351.507 166.601 353.069 166.742 354.573C166.883 356.076 167.115 357.603 167.256 357.966C167.398 358.329 167.611 359.723 167.731 361.063C167.851 362.404 168.065 363.716 168.207 363.981C168.349 364.245 168.534 365.289 168.617 366.3C168.701 367.311 168.937 368.927 169.141 369.891C169.345 370.855 169.611 372.657 169.732 373.896C169.853 375.135 170.128 376.642 170.344 377.244C170.559 377.847 170.739 378.804 170.744 379.372C170.748 379.94 170.971 381.024 171.238 381.781C171.506 382.538 171.728 383.474 171.733 383.859C171.737 384.245 171.953 384.977 172.213 385.486C172.473 385.996 172.954 386.968 173.281 387.647C173.908 388.945 176.398 391.645 177.344 392.054C177.65 392.186 178.07 392.398 178.277 392.526C178.937 392.933 181.121 393.585 182.551 393.802C183.311 393.917 185.856 394.091 188.207 394.188C190.557 394.285 192.65 394.461 192.857 394.58C193.065 394.699 193.461 394.733 193.737 394.656C194.014 394.579 194.693 394.468 195.246 394.41Z" fill="#7BE1C1" stroke="#7BE1C1" stroke-linecap="round" stroke-linejoin="round"/>
<path d="M234.962 276.157C233.754 275.427 232.895 272.167 233.576 270.899C233.712 270.647 233.937 269.431 234.078 268.196C234.218 266.961 234.504 265.544 234.712 265.048C234.92 264.552 235.094 263.551 235.099 262.824C235.103 262.097 235.326 260.882 235.593 260.125C235.861 259.368 236.088 258.185 236.099 257.496C236.109 256.808 236.286 255.794 236.492 255.244C236.698 254.693 236.981 253.183 237.122 251.887C237.263 250.592 237.543 249.142 237.743 248.665C237.943 248.188 238.107 247.276 238.107 246.639C238.107 246.001 238.333 244.691 238.61 243.729C238.886 242.766 239.117 241.358 239.123 240.6C239.13 239.843 239.304 238.772 239.511 238.222C239.719 237.671 239.992 236.124 240.118 234.783C240.244 233.443 240.468 232.123 240.615 231.849C240.763 231.575 240.991 230.219 241.124 228.835C241.256 227.451 241.482 226.099 241.626 225.831C241.77 225.563 241.997 224.211 242.129 222.827C242.262 221.443 242.493 220.081 242.644 219.8C242.795 219.519 243.018 218.198 243.139 216.865C243.261 215.532 243.535 213.825 243.75 213.072C243.965 212.32 244.14 211.123 244.14 210.413C244.14 209.703 244.316 208.629 244.531 208.027C244.745 207.424 245.022 205.805 245.146 204.428C245.269 203.051 245.546 201.432 245.761 200.83C245.976 200.227 246.151 199.439 246.149 199.077C246.147 198.092 247.371 195.76 248.307 194.97C249.884 193.636 251.567 193.426 257.087 193.874C257.64 193.919 259.619 194.042 261.486 194.149C263.352 194.255 265.445 194.485 266.136 194.66C266.828 194.836 268.242 195.062 269.279 195.163C270.316 195.264 271.504 195.486 271.918 195.655C272.333 195.825 273.401 196.046 274.291 196.146C275.181 196.246 276.2 196.478 276.556 196.662C276.913 196.845 277.768 197.075 278.458 197.172C279.147 197.269 279.94 197.491 280.22 197.665C280.499 197.839 281.196 198.061 281.768 198.157C282.34 198.253 283.016 198.489 283.27 198.681C283.525 198.873 283.961 199.034 284.24 199.038C284.519 199.043 285.141 199.257 285.623 199.514C286.105 199.771 286.858 200.059 287.298 200.155C287.738 200.252 288.223 200.48 288.376 200.663C288.529 200.847 289.034 201.068 289.499 201.155C289.964 201.241 290.477 201.471 290.639 201.665C290.8 201.859 291.264 202.09 291.669 202.179C292.075 202.268 292.406 202.435 292.406 202.551C292.406 202.667 292.824 202.9 293.335 203.067C293.845 203.235 294.383 203.471 294.529 203.591C295.064 204.031 296.707 205.054 296.879 205.054C297.162 205.055 299.915 207.005 301.85 208.576C303.741 210.11 306.484 213.246 306.484 213.872C306.484 214.079 306.71 214.535 306.987 214.885C307.263 215.235 307.489 215.707 307.489 215.934C307.489 216.161 307.701 216.819 307.96 217.396C308.218 217.974 308.502 219.347 308.59 220.449C308.678 221.55 308.867 222.872 309.01 223.386C309.185 224.013 309.188 224.476 309.019 224.789C308.881 225.047 308.69 226.034 308.594 226.983C308.498 227.933 308.21 229.102 307.955 229.582C307.699 230.062 307.489 230.738 307.488 231.084C307.487 231.43 307.261 232.051 306.987 232.464C306.712 232.877 306.487 233.463 306.486 233.766C306.485 234.069 306.343 234.407 306.17 234.517C305.997 234.627 305.516 235.372 305.101 236.174C304.686 236.975 304.149 237.809 303.907 238.027C303.665 238.246 303.467 238.535 303.467 238.671C303.467 239.77 291.34 252.033 288.693 253.473C288.448 253.551 287.797 254.061 287.247 254.608C286.697 255.155 286.134 255.614 285.996 255.628C285.858 255.641 285.235 256.035 284.613 256.502C283.991 256.97 283 257.667 282.411 258.05C281.821 258.434 280.755 259.171 280.04 259.687C279.325 260.203 278.609 260.625 276.918 261.627C276.643 261.627 275.463 262.305 274.42 263.063C274.275 263.168 273.483 263.592 272.66 264.005C271.837 264.418 270.894 264.953 270.565 265.194C270.235 265.435 269.772 265.632 269.535 265.632C269.299 265.632 268.9 265.857 268.65 266.133C268.4 266.408 268.003 266.633 267.768 266.633C267.533 266.633 266.447 267.083 265.356 267.633C264.264 268.184 263.187 268.634 262.962 268.635C262.737 268.635 262.415 268.802 262.245 269.005C262.076 269.208 261.525 269.449 261.021 269.541C260.516 269.634 259.833 269.919 259.504 270.174C259.174 270.429 258.594 270.638 258.215 270.638C257.836 270.638 257.387 270.805 257.218 271.007C257.049 271.21 256.498 271.447 255.993 271.533C255.488 271.619 254.615 271.904 254.053 272.166C253.491 272.427 252.808 272.641 252.535 272.641C252.263 272.641 251.596 272.866 251.053 273.142C250.511 273.417 249.821 273.642 249.519 273.642C249.218 273.642 248.478 273.865 247.875 274.137C247.273 274.41 246.463 274.635 246.076 274.638C245.689 274.641 245.04 274.814 244.635 275.023C244.229 275.232 243.358 275.466 242.699 275.542C242.04 275.619 241.105 275.837 240.621 276.027C239.327 276.535 235.724 276.618 234.962 276.157Z" fill="#7BE1C1" stroke="#7BE1C1" stroke-linecap="round" stroke-linejoin="round"/>
</svg>
