<svg width="3604" height="744" viewBox="0 0 3604 744" fill="none" xmlns="http://www.w3.org/2000/svg">
<g clip-path="url(#clip0_3221_791)">
<path d="M74.193 743.366C73.658 742.891 66.569 741.78 64.107 741.785C63.222 741.787 61.534 741.48 60.355 741.104C59.176 740.728 56.861 740.034 55.211 739.563C51.076 738.382 44.563 735.612 40.825 733.444C27.288 725.592 18.809 717.211 10.077 703.056C8.26096 700.112 4.43996 691.5 4.43996 690.351C4.43996 689.89 4.20196 689.275 3.91196 688.985C3.21596 688.29 2.07996 683.61 1.32196 678.319C0.689962 673.904 0.390962 661.756 0.463962 643.335C1.46696 388.088 1.41196 239.903 0.269962 121.586C-3.79831e-05 93.677 0.040962 80.123 0.399962 78.527C0.686962 77.247 1.14796 74.436 1.42296 72.28C1.99696 67.783 3.06896 62.655 3.96496 60.115C5.40496 56.035 5.93996 54.642 7.67496 50.462C13.586 36.221 25.794 22.277 39.692 13.897C43.714 11.472 53.532 6.641 54.438 6.641C54.707 6.641 55.666 6.331 56.569 5.952C60.912 4.131 68.551 2.465 76.612 1.582C79.579 1.257 82.125 0.801 82.269 0.568C82.62 4.47035e-07 93.147 0.0220005 93.751 0.592C95.313 2.066 324.942 2.765 440.366 1.647C501.637 1.054 654.51 1.754 658.453 2.646C659.829 2.957 662.08 3.411 663.455 3.655C671.286 5.044 676.455 6.793 684.964 10.932C704.967 20.662 718.141 37.494 724.241 61.115C724.49 62.077 725.093 64.663 725.581 66.862C726.425 70.658 726.485 85.065 726.762 351.475C726.972 552.631 727.212 633.576 727.613 637.338C727.992 640.91 728.023 644.581 727.707 648.833C727.452 652.268 727.032 659.43 726.774 664.748C726.281 674.903 725.819 678.675 724.162 686.065C722.801 692.137 722.137 693.936 718.636 701.058C716.138 706.138 716.158 706.106 711.899 711.821C706.274 719.37 701.446 723.528 688.715 731.783C687.518 732.56 686.179 733.201 681.212 735.377C679.974 735.919 678.571 736.571 674.907 737.793C673.934 738.765 664.53 741.116 658.703 741.844C655.745 742.214 582.38 742.346 417.518 742.28C287.204 742.227 180.303 742.357 179.96 742.569C179.617 742.781 178.047 742.902 176.472 742.838C174.854 742.772 173.465 742.953 173.279 743.254C172.874 743.909 152.932 744 152.225 743.35C151.687 742.855 121.175 741.768 108.162 741.78C97.555 741.79 81.885 742.685 81.246 743.317C80.656 743.901 74.842 743.941 74.193 743.366ZM301.06 603.528C304.922 603.303 309.125 602.73 313.064 601.891C318.063 600.826 323.353 597.11 325.287 593.304C326.573 590.776 328.056 585.825 328.064 584.042C328.067 583.178 328.384 580.817 328.768 578.795C329.151 576.773 329.843 572.532 330.304 569.371C330.766 566.21 331.467 562.162 331.861 560.375C332.256 558.588 332.798 555.665 333.066 553.878C333.334 552.092 333.89 548.718 334.301 546.382C334.713 544.045 335.37 540.192 335.763 537.819C336.155 535.447 336.716 532.298 337.009 530.823C338.363 524.011 339.074 519.763 339.072 518.51C339.07 517.089 340.051 511.476 341.488 504.688C342.427 500.251 344.109 497.459 346.693 496.049C348.183 495.236 349.709 495.171 363.835 495.317C378.975 495.473 396.589 494.656 404.601 493.425C406.389 493.15 409.541 492.708 411.604 492.442C420.794 491.257 438.968 487.55 443.867 485.862C446.063 485.105 450.181 483.898 451.62 483.589C452.308 483.442 453.546 483.028 454.371 482.669C455.197 482.311 456.601 481.865 457.492 481.677C458.383 481.49 459.24 481.129 459.397 480.875C460.393 480.547 463.559 479.605 463.996 479.181C464.755 478.992 466.051 478.547 466.876 478.192C467.702 477.837 471.19 476.346 474.629 474.878C481.392 471.99 497.894 463.748 499.179 462.618C499.613 462.235 500.13 461.922 500.328 461.922C500.526 461.922 501.919 461.135 503.424 460.173C504.93 459.211 506.276 458.424 506.416 458.424C506.556 458.424 508.437 457.215 510.597 455.737C512.757 454.26 514.74 452.967 515.003 452.864C515.846 452.535 523.492 446.828 529.54 442.011C540.866 432.994 551.725 422.714 557.361 415.674C563.812 407.615 565.007 406.101 565.677 405.138C567.766 402.137 573.669 393.357 573.669 393.252C573.669 393.185 575.02 390.709 576.67 387.749C578.321 384.789 579.672 382.281 579.672 382.175C579.672 382.069 580.418 380.348 581.332 378.348C582.844 375.039 584.182 371.854 585.167 369.217C585.372 368.667 586.02 366.976 586.607 365.459C587.195 363.942 587.675 362.212 587.675 361.616C587.675 361.019 587.887 360.399 588.146 360.239C588.405 360.079 588.772 358.885 588.96 357.586C589.149 356.287 589.522 354.801 589.791 354.285C590.06 353.769 590.459 352.195 590.678 350.787C590.898 349.379 591.316 346.878 591.606 345.228C592.702 339.011 593.68 329.055 593.679 324.133C593.677 319.261 591.936 301.825 591.358 300.89C591.207 300.644 590.894 299.275 590.663 297.848C590.204 295.005 589.378 291.59 588.586 289.255C588.306 288.431 587.892 286.969 587.665 286.007C587.269 284.324 587.011 283.593 584.661 277.511C584.076 275.999 583.414 274.2 583.19 273.513C582.519 271.465 576.308 259.204 573.773 254.926C572.478 252.74 571.193 250.57 570.918 250.104C570.318 249.086 566.333 243.257 563.859 239.779C545.91 214.542 523.606 193.044 498.54 176.823C487.698 169.808 473.42 162.136 465.126 158.87C464.713 158.707 464.038 158.374 463.625 158.129C462.504 157.464 458.595 155.864 452.871 153.726C451.77 153.315 450.195 152.69 449.369 152.338C447.319 151.463 440.259 149.092 438.115 148.559C436.088 148.055 432.031 146.865 429.861 146.136C429.036 145.86 426.898 145.269 425.109 144.825C423.321 144.381 420.733 143.702 419.357 143.318C417.982 142.933 412.805 141.845 407.853 140.899C399.793 139.36 395.706 138.688 384.593 137.071C374.405 135.588 358.496 134.459 351.58 134.727C343.851 135.027 328.767 136.247 322.568 137.072C313.084 138.336 304.493 139.632 301.06 140.316C293.817 141.76 289.78 142.631 287.054 143.336C285.541 143.727 282.502 144.49 280.301 145.03C278.1 145.57 275.624 146.232 274.799 146.5C273.974 146.768 272.06 147.343 270.547 147.779C267.845 148.556 259.471 151.276 255.041 152.815C252.698 153.629 252.041 153.89 248.897 155.25C247.856 155.7 246.797 156.069 246.543 156.069C246.11 156.069 243.537 157.198 236.169 160.619C234.455 161.415 232.88 162.07 232.668 162.074C232.221 162.083 222.416 167.009 217.276 169.807C204.111 176.971 185.095 189.329 176.086 196.575C174.531 197.826 171.007 200.566 168.256 202.665C156.002 212.013 152.626 215.189 149.262 220.538C146.488 224.948 145.805 230.766 147.248 237.681C147.66 239.66 148.35 242.965 148.781 245.026C149.212 247.088 149.804 249.548 150.098 250.493C150.59 252.076 151.355 255.205 152.488 260.269C152.928 262.237 153.406 264.087 154.877 269.515C159.276 285.747 162.983 291.929 169.684 294.202C174.804 295.939 188.547 294.578 204.803 290.724C212.545 288.888 215.525 290.842 215.525 297.751C215.525 299.28 215.863 301.339 216.275 302.326C216.688 303.312 217.025 304.711 217.025 305.433C217.025 306.156 217.351 308.546 217.75 310.745C219.212 318.813 220.984 330.296 221.336 333.984C221.48 335.496 221.801 337.295 222.051 337.982C222.3 338.669 222.743 341.255 223.035 343.729C223.553 348.131 223.962 350.797 225.086 357.098C225.392 358.816 225.939 362.358 226.301 364.969C226.663 367.58 227.443 372.64 228.035 376.214C228.626 379.787 229.311 384.172 229.556 385.959C230.536 393.103 231.467 399.04 231.986 401.455C232.286 402.855 232.535 404.832 232.538 405.849C232.541 406.866 232.878 408.802 233.288 410.152C233.697 411.501 234.033 413.372 234.033 414.31C234.033 415.247 234.377 417.966 234.797 420.352C235.967 426.987 236.933 433.108 237.809 439.433C238.247 442.594 238.832 446.305 239.108 447.679C239.672 450.485 240.851 458.385 241.496 463.672C241.73 465.596 242.058 467.507 242.224 467.92C242.544 468.711 243.895 477.894 244.51 483.454C244.71 485.263 245.015 486.97 245.186 487.247C245.357 487.524 245.735 489.866 246.026 492.453C246.317 495.04 246.759 497.943 247.009 498.905C247.46 500.644 247.983 503.83 249.305 512.898C249.685 515.509 250.331 519.782 250.738 522.393C251.146 525.005 251.812 529.435 252.219 532.24C252.626 535.044 253.081 537.743 253.231 538.237C253.556 539.307 254.968 548.296 255.531 552.879C255.75 554.665 256.196 557.589 256.52 559.376C258.262 568.965 258.543 570.766 258.543 572.336C258.543 573.28 258.859 575.304 259.245 576.834C259.916 579.492 260.626 582.771 261.472 587.112C261.686 588.212 262.094 589.561 262.379 590.111C262.664 590.661 263.315 591.976 263.826 593.033C265.972 597.476 270.068 600.637 275.799 602.276C278.583 603.072 286.193 603.718 289.898 603.473C291.613 603.36 293.397 603.509 293.9 603.808C294.399 604.105 295.37 604.213 296.058 604.048C296.745 603.882 298.996 603.649 301.06 603.528Z" fill="#FD853A"/>
<path d="M2037.01 524.084C2031.61 523.542 2025.82 521.086 2023.94 518.537C2021.71 515.534 2020.12 511.476 2019.25 506.651C2019.01 505.277 2018.57 503.018 2018.28 501.632C2017.9 499.878 2017.79 459.361 2017.9 368.196C2018.08 224.195 2017.85 234.469 2021.02 228.2C2023.49 223.32 2028.45 219.463 2034.71 217.545C2037.78 216.604 2039.18 216.453 2042.96 216.653C2046.83 216.857 2048.08 217.157 2051.27 218.657C2056 220.872 2060.96 224.744 2062 227.035C2063.07 229.376 2064.27 233.615 2064.89 237.28C2065.22 239.211 2065.51 275.229 2065.71 338.427C2066.06 449.918 2065.52 438.736 2070.47 436.232C2072.39 435.263 2074.1 433.805 2076.01 431.51C2077.54 429.683 2092.18 414.92 2108.55 398.703C2124.92 382.485 2153.01 354.599 2170.97 336.732C2201.25 306.616 2203.93 304.078 2207.79 301.911C2211.29 299.944 2212.52 299.52 2215.6 299.232C2219.39 298.878 2225.97 299.324 2227.31 300.026C2227.74 300.247 2229.21 300.937 2230.59 301.558C2233.63 302.935 2238.94 308.089 2240.09 310.779C2243.6 319.052 2243.68 324.198 2240.43 332.235C2238.31 337.464 2233.46 342.831 2204.99 371.466C2186.23 390.331 2181.32 395.605 2181.32 396.888C2180.82 397.137 2179.19 400.762 2179.22 400.845C2178.29 401.775 2176.84 407.915 2176.84 410.947C2176.83 414.287 2178.24 419.74 2180.06 423.401C2182.53 428.381 2187.18 433.721 2198.42 444.489C2215.62 460.968 2221.64 467.133 2238.09 485.147C2241.62 489.008 2242.2 490.704 2242.64 498.405L2242.95 503.652L2241.08 507.401C2236.65 516.313 2231.89 521.396 2226.08 523.438C2219.41 525.78 2210.97 523.578 2203.33 517.501C2198.82 513.916 2139.36 455.205 2135.91 450.928C2131.69 445.706 2130.4 445.333 2127.46 448.492C2126.41 449.627 2118 457.989 2108.79 467.075C2099.57 476.161 2084.04 491.633 2074.27 501.459C2056.46 519.377 2054.04 521.464 2049.06 523.152C2046.85 523.902 2040.26 524.411 2037.01 524.084Z" fill="#FFFEFF" stroke="#FFFEFF" stroke-linecap="round" stroke-linejoin="round"/>
<path d="M1327.95 521.718C1321.05 515.218 1317.75 513.774 1309.22 513.511C1305.44 513.394 1302.47 513.549 1301.21 513.926C1299.07 514.569 1294.17 515.759 1291.71 516.233C1290.88 516.392 1289.98 516.698 1289.71 516.913C1289.43 517.128 1287.97 517.647 1286.46 518.065C1284.94 518.484 1282.47 519.196 1280.95 519.648C1277.74 520.606 1273.82 521.472 1266.2 522.908C1259.28 524.211 1242.09 524.781 1234.69 523.952C1225.96 522.976 1212.72 520.142 1211.2 518.927C1210.91 518.698 1209.89 518.344 1208.93 518.139C1207.96 517.935 1206.73 517.459 1206.19 517.082C1205.65 516.705 1204.92 516.396 1204.57 516.396C1203.68 516.396 1197.33 513.351 1192.92 510.805C1187.17 507.487 1182.23 503.986 1177.66 499.987C1177.11 499.505 1175.45 498.109 1173.98 496.884C1171.49 494.822 1163.77 485.964 1160.92 481.916C1157.65 477.255 1155.4 473.878 1155.4 473.609C1155.4 473.446 1154.73 472.312 1153.9 471.09C1153.08 469.869 1152.4 468.739 1152.4 468.58C1152.4 468.421 1151.08 465.565 1149.46 462.233C1147.85 458.901 1146.37 455.613 1146.18 454.926C1145.99 454.239 1145.63 453.227 1145.39 452.677C1144.35 450.365 1141.41 442.477 1140.64 439.933C1140.19 438.421 1139.62 436.695 1139.38 436.097C1138.31 433.398 1137.8 422.003 1138.02 405.449C1138.24 388.361 1138.26 388.17 1139.6 383.96C1140.35 381.623 1141.19 378.812 1141.47 377.713C1141.75 376.613 1142.17 375.264 1142.4 374.714C1142.63 374.164 1142.96 373.04 1143.13 372.215C1143.69 369.537 1146.71 361.782 1148.98 357.223C1157.31 340.456 1171.64 325.114 1191.17 312.07C1195.97 308.863 1198.31 307.773 1203.92 306.138C1206.26 305.457 1209.64 304.463 1211.43 303.931C1213.21 303.398 1215.58 302.828 1216.68 302.663C1217.78 302.498 1219.05 302.172 1219.51 301.939C1222.47 300.423 1247.48 297.736 1253.94 298.239C1269.12 299.421 1276.94 300.986 1288.96 305.245C1292.54 306.513 1305.54 312.735 1307.21 313.983C1308.44 314.897 1310.58 314.987 1312.25 314.196C1314.28 313.233 1315.81 311.301 1318.23 306.642C1319.52 304.155 1323.19 301.085 1326.79 299.469C1329.8 298.121 1330.53 298.001 1335.79 298.001C1339.74 298.001 1342.07 298.232 1343.31 298.751C1344.29 299.163 1345.5 299.5 1345.98 299.5C1347.84 299.5 1352.89 302.165 1355.92 304.739C1358.26 306.73 1361.36 312.249 1361.82 315.243C1361.99 316.342 1362.35 317.684 1362.63 318.225C1362.97 318.881 1363.1 349.318 1363.03 409.761C1362.91 503.462 1362.9 504.065 1360.95 509.377C1358.3 516.586 1350.93 521.27 1338.56 523.603C1330.95 525.037 1331.6 525.152 1327.95 521.718ZM1261.45 474.993C1262.41 474.712 1265 474.002 1267.2 473.415C1271.57 472.252 1272.1 472.066 1275.51 470.486C1276.77 469.899 1277.95 469.419 1278.11 469.419C1278.63 469.419 1287.47 463.952 1289.65 462.288C1295.21 458.03 1301.39 451.291 1305.55 444.931C1307.68 441.678 1311.42 434.023 1311.98 431.774C1312.2 430.901 1312.61 429.513 1312.88 428.688C1314.4 424.175 1314.66 422.031 1314.83 412.696C1315.02 402.41 1314.9 401.422 1312.63 393.455C1311.54 389.62 1309.04 383.721 1307.13 380.461C1306.24 378.95 1305.13 377.038 1304.67 376.214C1303.31 373.816 1299.67 369.256 1296.57 366.066C1288.82 358.09 1279.47 352.191 1269.94 349.263C1267.61 348.546 1264.46 347.57 1262.95 347.093C1258.88 345.815 1242.07 345.843 1237.44 347.135C1229.13 349.455 1223.6 351.568 1219.28 354.08C1217.96 354.846 1216.77 355.473 1216.63 355.473C1215.77 355.473 1207.44 362.379 1203.41 366.426C1196.4 373.48 1191.4 381.59 1187.67 391.956C1185.49 398.017 1184.61 407.238 1185.35 416.12C1185.9 422.643 1186.14 423.918 1187.95 429.688C1189.51 434.681 1190.26 436.575 1192.02 439.95C1198.8 452.986 1208.48 462.732 1220.68 468.827C1224.04 470.507 1228.43 472.417 1228.93 472.417C1229.19 472.417 1230.44 472.769 1231.7 473.199C1232.97 473.629 1235.29 474.214 1236.85 474.5C1238.41 474.785 1240.59 475.206 1241.69 475.435C1244.31 475.983 1259.2 475.649 1261.45 474.993Z" fill="#FFFEFF" stroke="#FFFEFF" stroke-linecap="round" stroke-linejoin="round"/>
<path d="M2290.61 523.443C2290.06 523.231 2288.54 523.01 2287.23 522.952C2284.29 522.822 2278 520.87 2275.16 519.206C2274 518.524 2272.1 516.941 2270.95 515.69C2268.88 513.453 2266.35 508.749 2266.35 507.152C2266.35 506.705 2266.02 505.285 2265.62 503.996C2264.24 499.519 2263.99 467.052 2264.44 351.226C2264.81 254.141 2264.97 238.477 2265.61 236.566C2266.02 235.35 2266.35 233.945 2266.35 233.444C2266.35 231.972 2269.17 226.472 2271.21 223.965C2273.4 221.273 2276.75 218.929 2280.19 217.674C2282.03 217 2284.09 216.794 2288.86 216.807C2294.6 216.823 2295.35 216.938 2298.07 218.193C2303.48 220.69 2307.27 224.713 2309.45 230.284C2312.25 237.449 2312.04 233.953 2312.25 276.669C2312.43 311.216 2312.55 316.093 2313.21 316.347C2313.63 316.507 2316.03 315.611 2318.54 314.358C2321.06 313.104 2324.92 311.259 2327.12 310.257C2329.33 309.255 2331.53 308.218 2332.01 307.953C2334.19 306.775 2345.16 303.278 2349.29 302.45C2350.48 302.212 2351.67 301.881 2351.94 301.714C2352.21 301.548 2354.28 301.09 2356.53 300.696C2371.24 298.132 2392.47 298.592 2404.16 301.727C2405.53 302.096 2407.67 302.656 2408.91 302.971C2410.14 303.286 2412.01 303.762 2413.05 304.028C2414.09 304.293 2415.33 304.709 2415.8 304.953C2416.27 305.196 2417.67 305.795 2418.91 306.284C2425.99 309.081 2427.82 309.966 2433.92 313.546C2440.71 317.525 2443.46 319.482 2450.57 325.371C2453.81 328.058 2460.3 334.935 2464.12 339.731C2470.56 347.829 2475.93 356.802 2479.67 365.719C2480.13 366.818 2480.82 368.392 2481.19 369.217C2481.76 370.464 2483.95 377.142 2485.95 383.71C2486.85 386.656 2488.44 395.566 2488.44 397.64C2488.44 398.802 2488.68 399.993 2488.98 400.287C2490.03 401.344 2490.54 425.085 2490.3 462.922C2490.08 500.225 2490.06 500.694 2488.96 504.152C2486.89 510.653 2485.19 513.568 2481.09 517.616C2472.49 526.113 2458.78 525.865 2450.4 517.061C2447.27 513.771 2446.03 511.656 2444.09 506.347L2442.75 502.653L2442.4 455.176C2442.06 409.843 2441.74 400.418 2440.47 398.043C2440.17 397.48 2439.92 396.499 2439.92 395.862C2439.93 394.021 2436.46 384.175 2434.86 381.461C2434.61 381.049 2434.18 380.171 2433.9 379.509C2433.61 378.847 2432.71 377.318 2431.9 376.11C2431.08 374.902 2430.42 373.785 2430.42 373.626C2430.42 373.467 2428.81 371.451 2426.85 369.146C2418.76 359.625 2407.14 352.111 2394.9 348.49C2392.84 347.879 2390.47 347.121 2389.65 346.804C2388.68 346.432 2384.25 346.228 2377.14 346.229C2367.97 346.23 2365.68 346.378 2363.39 347.118C2361.88 347.606 2359.51 348.357 2358.14 348.787C2349.38 351.52 2337.82 358.607 2330.9 365.484C2328.71 367.662 2323.3 374.177 2321.99 376.224C2320.76 378.137 2316.46 387.234 2315.73 389.457C2312.06 400.682 2312.13 399.47 2312.08 453.676L2312.03 502.153L2310.94 505.402C2309.66 509.169 2309.05 510.491 2307.46 512.898C2304.74 517.022 2299.51 521.278 2294.98 523.055C2292.64 523.972 2292.1 524.019 2290.61 523.443Z" fill="#FFFEFF" stroke="#FFFEFF" stroke-linecap="round" stroke-linejoin="round"/>
<path d="M3573.88 523.956C3571.32 523.114 3568.52 521.413 3565.03 518.57C3563.05 516.962 3560.46 515.175 3559.27 514.598C3554.02 512.04 3553.43 511.898 3548.16 511.898C3542.44 511.898 3540.8 512.285 3532.11 515.664C3529.08 516.84 3526.04 517.951 3525.36 518.131C3524.67 518.311 3523.66 518.644 3523.11 518.871C3520.23 520.057 3513.97 521.486 3505.35 522.924C3495.76 524.522 3479.6 524.064 3469.33 521.904C3460.05 519.951 3456.3 518.888 3449.83 516.379C3448.31 515.792 3446.62 515.178 3446.07 515.014C3443.41 514.222 3431.98 508.142 3427.23 504.991C3420.52 500.544 3412.79 493.924 3407.41 488.024C3403.35 483.58 3402.58 482.587 3398.79 476.915C3396.83 473.982 3392.04 464.646 3390.58 460.923C3390.09 459.686 3389.38 458.077 3389 457.348C3388.61 456.618 3388.3 455.752 3388.3 455.424C3388.3 455.096 3388 454.118 3387.63 453.252C3386.86 451.466 3385.83 448.397 3385.25 446.18C3385.03 445.355 3384.38 443.106 3383.8 441.182C3383.23 439.258 3382.45 436.447 3382.09 434.935C3381.72 433.424 3380.98 430.541 3380.44 428.529C3378.7 422.037 3379.45 404.045 3382.01 390.956C3383.13 385.26 3385.38 376.605 3386.24 374.714C3386.49 374.164 3387.41 371.803 3388.27 369.467C3391.22 361.505 3397.72 348.317 3400.86 343.902C3401.38 343.172 3401.81 342.426 3401.81 342.243C3401.81 341.63 3404.93 337.366 3407.93 333.886C3410.99 330.332 3419.65 322.489 3420.51 322.489C3420.78 322.489 3421.46 322.059 3422.03 321.534C3424.98 318.802 3444.57 308.496 3446.8 308.496C3447.1 308.496 3447.73 308.273 3448.21 308C3449.28 307.389 3453.14 306.012 3454.83 305.639C3455.52 305.487 3456.3 305.193 3456.58 304.984C3457.17 304.533 3462.75 303.019 3465.6 302.533C3466.71 302.344 3467.85 302.047 3468.13 301.873C3469.17 301.234 3478.31 299.911 3486.34 299.238C3497.94 298.265 3506.39 298.977 3516.1 301.744C3523.7 303.908 3526.16 304.662 3526.61 304.967C3526.88 305.153 3528.74 305.823 3530.74 306.458C3532.74 307.094 3534.5 307.812 3534.65 308.055C3534.8 308.298 3535.26 308.496 3535.67 308.496C3536.34 308.496 3537.91 309.12 3542.69 311.281C3543.56 311.673 3544.52 311.994 3544.82 311.994C3545.13 311.994 3545.77 312.211 3546.25 312.477C3547.82 313.351 3551.8 314.993 3552.35 314.993C3552.64 314.993 3553.33 315.273 3553.88 315.614C3555.36 316.538 3556.68 315.533 3556.42 313.68C3556.31 312.89 3556.2 295.377 3556.18 274.762C3556.13 230.811 3555.85 233.439 3561.31 226.547C3566.42 220.098 3571.68 217.126 3578.45 216.875C3581.47 216.763 3587.6 217.87 3589.67 218.901C3590.2 219.165 3591.7 219.896 3593 220.525C3595.89 221.92 3599.29 225.457 3600.99 228.829C3604 234.823 3603.85 227.834 3603.93 370.466C3603.99 492.733 3603.95 500.882 3603.12 504.399C3602.64 506.459 3601.55 509.492 3600.69 511.14C3598.48 515.397 3593.45 520.278 3589.13 522.364C3585.95 523.901 3585.15 524.069 3580.38 524.211C3577.49 524.297 3574.56 524.182 3573.88 523.956ZM3503.1 474.51C3506.32 473.912 3511.82 472.492 3513.1 471.926C3513.65 471.684 3515 471.114 3516.1 470.661C3524.27 467.295 3531.01 462.719 3537.84 455.914C3550.39 443.402 3556.54 429.069 3556.59 412.196C3556.62 404.226 3555.02 395.303 3552.36 388.458C3551.77 386.946 3551.13 385.259 3550.94 384.709C3550.6 383.703 3547.89 378.564 3546.74 376.721C3541.63 368.578 3532.48 359.317 3525.92 355.665C3523.33 354.225 3522.52 353.733 3521.78 353.147C3521.41 352.85 3519.77 352.116 3518.14 351.514C3516.5 350.913 3514.93 350.266 3514.63 350.077C3514.34 349.888 3513.2 349.477 3512.1 349.165C3511 348.853 3508.3 348.086 3506.1 347.462C3502.59 346.467 3500.89 346.32 3492.34 346.277C3484.31 346.236 3481.97 346.392 3479.09 347.158C3474.05 348.497 3470.73 349.483 3469.58 349.985C3469.03 350.226 3467.35 350.922 3465.83 351.532C3464.32 352.143 3462.73 352.942 3462.29 353.308C3461.86 353.675 3461.33 353.974 3461.11 353.974C3460.9 353.974 3458.56 355.424 3455.9 357.197C3446.64 363.379 3438.79 372.327 3433.85 382.308C3433.01 384.01 3432.32 385.584 3432.32 385.806C3432.31 386.027 3431.97 386.869 3431.55 387.676C3431.13 388.482 3430.55 390.056 3430.26 391.174C3429.97 392.291 3429.27 395.004 3428.71 397.203C3427.86 400.504 3427.67 402.813 3427.64 410.447C3427.62 416.384 3427.84 420.587 3428.25 422.191C3429.73 428.01 3430.91 432.252 3431.33 433.186C3431.57 433.736 3432.27 435.423 3432.89 436.934C3433.52 438.446 3434.65 440.761 3435.42 442.079C3436.19 443.397 3436.82 444.575 3436.82 444.697C3436.82 445.554 3443.41 453.824 3446.41 456.736C3449.93 460.149 3457.82 466.42 3458.6 466.42C3458.8 466.42 3460.01 467.043 3461.27 467.805C3462.54 468.566 3464.93 469.71 3466.58 470.347C3468.23 470.984 3470.03 471.707 3470.58 471.953C3471.93 472.554 3477.35 473.872 3482.59 474.871C3485.52 475.429 3499.47 475.184 3503.1 474.51Z" fill="#FFFEFF" stroke="#FFFEFF" stroke-linecap="round" stroke-linejoin="round"/>
<path d="M1475.28 524.115C1474.73 523.988 1473.04 523.646 1471.53 523.357C1466.6 522.415 1461.56 520.845 1456.02 518.526C1452.67 517.124 1445.26 513.285 1443.12 511.846C1441.94 511.05 1440.87 510.399 1440.74 510.399C1440.3 510.399 1433.73 505.689 1429.01 501.996C1418.49 493.763 1404.67 478.018 1399.09 467.92C1397.3 464.683 1393.51 456.918 1392.63 454.676C1390.77 449.953 1388.5 440.824 1388.5 438.098C1388.5 437.042 1388.26 435.392 1387.97 434.432C1387.68 433.472 1387.23 429.763 1386.97 426.19C1386.71 422.616 1386.27 418.118 1385.99 416.194C1385.33 411.559 1385.34 315.945 1386.01 313.369C1386.28 312.338 1386.68 310.763 1386.92 309.87C1388.6 303.367 1393.21 300.162 1402.46 299.05C1414.89 297.555 1424.66 301.214 1429.28 309.101C1430.24 310.722 1431.01 312.339 1431.01 312.694C1431.01 313.049 1431.33 313.993 1431.73 314.791C1433.21 317.8 1434.03 373.081 1432.96 398.297C1432.53 408.494 1432.55 412.359 1433.03 415.789C1433.99 422.577 1434.35 424.565 1434.93 426.19C1435.22 427.014 1435.92 429.208 1436.49 431.065C1437.05 432.921 1437.7 434.833 1437.94 435.313C1438.18 435.792 1438.79 437.084 1439.31 438.184C1444.35 448.907 1453.7 459.844 1462.85 465.699C1469.18 469.75 1477.56 473.265 1483.78 474.474C1485.16 474.741 1487.3 475.162 1488.54 475.408C1491.43 475.984 1503.12 475.989 1506.04 475.415C1510.9 474.464 1513.03 473.937 1513.9 473.476C1514.39 473.212 1516.32 472.379 1518.19 471.625C1520.06 470.871 1523.55 469.144 1525.94 467.788C1528.34 466.431 1531.77 464.526 1533.55 463.554C1538.49 460.869 1541.93 458.487 1545.09 455.565C1548.34 452.564 1553.28 446.685 1554.58 444.286C1557.81 438.298 1559.34 434.327 1561.27 426.939C1563.14 419.73 1563.23 417.443 1563.55 367.967C1563.79 330.863 1564.02 318.764 1564.5 317.242C1564.85 316.142 1565.49 314.006 1565.94 312.494C1566.38 310.982 1567.05 309.39 1567.41 308.956C1567.77 308.522 1568.07 307.936 1568.07 307.652C1568.07 306.372 1572.23 302.552 1575.17 301.134C1579.34 299.122 1582.21 298.501 1587.33 298.501C1601.68 298.501 1609.28 305.923 1611.11 321.74C1611.95 329.028 1611.96 401.512 1611.12 414.945C1610.77 420.58 1610.26 426.202 1610 427.439C1609.73 428.676 1609.32 431.037 1609.08 432.686C1608.84 434.336 1608.18 437.372 1607.6 439.433C1607.02 441.495 1606.35 443.969 1606.09 444.931C1604.72 450.184 1599.75 461.065 1595.65 467.826C1594.1 470.386 1592.6 472.86 1592.33 473.324C1592.05 473.788 1590.57 475.854 1589.03 477.915C1581.46 488.065 1568.56 500.396 1559.15 506.491C1554.77 509.333 1543.89 514.62 1539.81 515.894C1538.71 516.238 1537.38 516.737 1536.87 517.002C1535.38 517.768 1526.71 520.167 1521.8 521.173C1510.01 523.589 1506.48 523.932 1491.29 524.14C1483.03 524.254 1475.83 524.242 1475.28 524.115Z" fill="#FFFEFF" stroke="#FFFEFF" stroke-linecap="round" stroke-linejoin="round"/>
<path d="M1651.35 523.275C1647.85 522.084 1644.69 520.347 1642.48 518.41C1640.02 516.245 1637.1 512.321 1635.6 508.481C1635.6 508.042 1635.28 506.776 1634.9 505.668C1632.84 499.66 1632.88 501.238 1632.71 411.946C1632.56 327.926 1632.62 324.179 1634.11 315.754C1636.04 304.904 1645.31 298.001 1657.95 298.001C1666.82 298.001 1673.14 301.746 1677.12 309.373C1681.2 317.164 1681.65 317.393 1686.76 314.292C1692.5 310.808 1703.94 305.497 1705.71 305.497C1706.23 305.497 1707.16 305.195 1707.77 304.825C1708.38 304.455 1710.34 303.752 1712.13 303.262C1713.91 302.773 1716.09 302.064 1716.95 301.686C1717.82 301.308 1718.77 301 1719.07 301C1719.37 301 1721.25 300.463 1723.25 299.808C1726.37 298.785 1728.22 298.575 1736.39 298.326C1753.88 297.793 1761.11 300.064 1765.95 307.611C1766.61 308.637 1767.15 309.885 1767.15 310.385C1767.15 310.885 1767.39 311.532 1767.68 311.822C1767.97 312.112 1768.53 314.4 1768.94 316.907C1770.47 326.388 1767.52 334.251 1760.06 340.611C1755.85 344.197 1753.04 345.478 1749.37 345.478C1744.54 345.478 1736.17 346.391 1733.26 347.235C1731.82 347.654 1729.35 348.369 1727.76 348.824C1723.41 350.074 1713.43 354.676 1711.59 356.284C1711.15 356.662 1710.63 356.973 1710.43 356.973C1709.7 356.973 1702.77 362.793 1699.28 366.339C1694.06 371.637 1687.68 381.586 1685.36 388.053C1683.43 393.41 1683.12 394.41 1682.36 397.703C1680.78 404.546 1680.52 410.901 1681.11 428.688C1681.87 451.394 1681.36 495.487 1680.28 501.154C1679.52 505.134 1679.34 505.675 1677.06 510.892C1675.57 514.293 1670.29 519.773 1666.98 521.351C1662 523.725 1655.15 524.569 1651.35 523.275Z" fill="#FFFEFF" stroke="#FFFEFF" stroke-linecap="round" stroke-linejoin="round"/>
<path d="M1880.59 524.306C1874.53 523.964 1871.18 523.484 1858.94 521.203C1857.28 520.896 1855.69 520.483 1855.39 520.287C1855.09 520.091 1853.86 519.775 1852.67 519.584C1851.47 519.393 1849.92 518.937 1849.21 518.569C1848.51 518.202 1847.47 517.9 1846.9 517.898C1846.34 517.897 1845.43 517.565 1844.9 517.162C1844.37 516.758 1843.57 516.421 1843.13 516.412C1840.54 516.361 1824.95 508.468 1818.42 503.909C1804.7 494.324 1793.9 482.529 1784.31 466.659C1783.39 465.13 1778.65 455.392 1778.65 455.013C1778.65 454.827 1778.36 454.114 1778 453.426C1776.59 450.687 1774.24 443.276 1772.94 437.434C1770.37 425.882 1769.64 419.679 1769.65 409.448C1769.66 402.172 1770.78 389.144 1771.61 386.708C1771.89 385.884 1773.15 381.948 1774.42 377.963C1775.69 373.977 1777.02 370.041 1777.37 369.217C1777.72 368.392 1778.52 366.368 1779.15 364.719C1781.33 359.039 1786.4 349.096 1789.81 343.821C1796.77 333.054 1805.25 324.558 1816.18 317.399C1820.22 314.753 1830.67 309.54 1836.43 307.298C1839.18 306.226 1842.1 305.083 1842.93 304.756C1844.3 304.213 1846.42 303.56 1852.68 301.757C1858.73 300.017 1869.03 298.541 1877.94 298.14C1885.73 297.79 1900.8 299.566 1908.46 301.738C1919.14 304.768 1924.54 306.812 1934.97 311.76C1938.06 313.228 1941.68 314.476 1942.86 314.486C1944.3 314.497 1947.52 312.647 1948.71 311.136C1949.3 310.371 1950.96 307.946 1952.38 305.747C1954.76 302.083 1955.27 301.603 1958.48 300C1961.64 298.417 1962.45 298.234 1966.95 298.076C1969.87 297.974 1972.74 298.146 1973.9 298.492C1974.99 298.817 1976.91 299.268 1978.18 299.494C1985.19 300.745 1990.84 305.125 1993.32 311.245C1995.58 316.82 1995.49 312.528 1995.49 410.197C1995.49 497.011 1995.44 502.892 1994.6 506.574C1992.3 516.696 1986.94 521.114 1974.51 523.125C1971.1 523.676 1969.86 523.669 1966.72 523.079C1960.04 521.827 1955.96 519.111 1952.64 513.726C1951.45 511.791 1949.66 509.352 1948.66 508.305C1946.01 505.529 1944.81 505.695 1937.22 509.899C1933.74 511.823 1930.65 513.398 1930.35 513.398C1930.04 513.398 1929.16 513.729 1928.38 514.134C1924.78 516.009 1916.55 518.781 1909.96 520.345C1907.48 520.933 1904.67 521.616 1903.7 521.865C1901.48 522.441 1891.5 524.255 1889.2 524.504C1888.23 524.608 1884.36 524.519 1880.59 524.306ZM1891.32 475.386C1892.63 475.128 1894.66 474.725 1895.83 474.491C1905 472.659 1915.4 467.671 1923.46 461.239C1931.99 454.44 1937.63 447.068 1943.28 435.343C1943.76 434.353 1945.18 430.009 1946.52 425.44C1947.86 420.851 1947.9 402.149 1946.57 397.953C1946.09 396.441 1945.33 393.968 1944.89 392.456C1943.56 387.969 1941.27 382.892 1938.58 378.462C1932.98 369.258 1922.6 359.041 1914.51 354.769C1913.16 354.058 1911.81 353.291 1911.51 353.065C1910.62 352.404 1903.68 349.613 1900.95 348.822C1891.83 346.175 1892.23 346.232 1882.95 346.23C1873.82 346.228 1870.61 346.672 1864.19 348.826C1861.36 349.774 1854.68 352.425 1853.68 352.995C1853.27 353.23 1852.09 353.878 1851.07 354.434C1845.14 357.65 1836.84 364.873 1831.21 371.716C1827.84 375.804 1826.28 378.213 1823.98 382.839C1822.41 385.998 1821.68 387.746 1819.98 392.331C1816.69 401.196 1816.57 419.051 1819.74 428.189C1820.02 429.013 1820.45 430.363 1820.68 431.187C1821.45 433.904 1822.49 436.457 1823.09 437.05C1823.41 437.371 1823.67 437.919 1823.67 438.268C1823.67 438.879 1824.81 441.113 1826.92 444.625C1831.43 452.127 1838.76 459.851 1845.68 464.393C1850.1 467.292 1860 472.396 1861.29 472.439C1861.65 472.451 1862.84 472.796 1863.94 473.205C1865.04 473.615 1867.18 474.19 1868.69 474.484C1870.2 474.778 1872.34 475.192 1873.44 475.404C1876.3 475.956 1888.51 475.943 1891.32 475.386Z" fill="#FFFEFF" stroke="#FFFEFF" stroke-linecap="round" stroke-linejoin="round"/>
<path d="M2984.14 523.386C2983.18 523.164 2980.81 522.741 2978.89 522.445C2970.88 521.214 2966.51 520.121 2959.13 517.497C2952.22 515.042 2951.12 514.595 2950.51 513.981C2950.19 513.661 2949.68 513.398 2949.38 513.398C2948.71 513.398 2941.07 509.496 2938.52 507.848C2937.49 507.19 2935.58 505.988 2934.26 505.177C2924.59 499.227 2910.13 485.817 2904.86 477.915C2900.7 471.678 2899.72 469.938 2895.82 461.922C2894.02 458.212 2892.22 454.539 2891.82 453.761C2891.42 452.983 2891.1 452.117 2891.1 451.837C2891.1 451.557 2890.8 450.62 2890.43 449.754C2889.34 447.183 2888.53 444.793 2888.11 442.932C2887.89 441.969 2887.49 440.508 2887.22 439.683C2884.97 432.824 2883.52 421.379 2883.54 410.564C2883.54 405.819 2883.65 401.771 2883.77 401.569C2883.9 401.367 2884.25 398.953 2884.56 396.204C2885.42 388.569 2887.97 378.55 2891.11 370.466C2891.7 368.954 2892.36 367.155 2892.58 366.468C2892.8 365.781 2894.28 362.633 2895.87 359.472C2908.01 335.304 2928.6 316.096 2952.63 306.509C2954.14 305.906 2955.76 305.209 2956.23 304.961C2956.71 304.713 2957.95 304.303 2958.99 304.049C2960.03 303.795 2961.55 303.356 2962.38 303.075C2973.39 299.315 2991.98 297.236 3003.4 298.486C3016.14 299.883 3023.46 301.109 3024.35 301.992C3024.63 302.271 3025.38 302.499 3026.02 302.499C3027.1 302.499 3032.08 303.961 3034.41 304.962C3034.96 305.199 3036.53 305.781 3037.91 306.258C3041.44 307.478 3043.08 308.201 3050.12 311.619C3053.53 313.277 3057.24 314.735 3058.37 314.858C3061.57 315.209 3063.96 313.172 3066.8 307.675C3069.85 301.78 3071.5 300.356 3077.14 298.767C3080.61 297.789 3083.33 297.797 3088.93 298.802C3094.65 299.827 3097.8 301.034 3100.9 303.382C3105.4 306.788 3107.36 310.685 3108.89 319.241C3110.15 326.287 3110.28 328.918 3109.64 334.485C3109.15 338.822 3109.15 341.089 3109.64 345.581C3110.42 352.7 3109.52 498.525 3108.66 504.087C3106.97 515.047 3097.81 522.699 3085.18 523.708C3080.56 524.078 3076.63 523.062 3072.73 520.483C3070.21 518.82 3069.04 517.44 3064.17 510.386C3062.53 508.004 3060.16 506.401 3058.29 506.401C3057.54 506.401 3053.44 508.367 3050.16 510.302C3049.2 510.87 3047.4 511.816 3046.16 512.403C3044.93 512.989 3043.52 513.68 3043.04 513.938C3040.55 515.267 3027.57 519.609 3021.4 521.172C3010.14 524.029 3011.29 523.896 2998.24 523.841C2991.45 523.813 2985.1 523.608 2984.14 523.386ZM3007.65 474.953C3011.36 474.15 3015.47 472.975 3017.9 472.025C3021.7 470.539 3024.41 469.382 3025.39 468.831C3025.93 468.527 3027.29 467.79 3028.41 467.192C3041.15 460.427 3053.13 446.372 3057.61 432.936C3058.21 431.15 3058.9 429.238 3059.15 428.688C3060.13 426.543 3061.17 417.765 3061.17 411.696C3061.17 405.66 3060.13 396.884 3059.16 394.705C3058.92 394.155 3058.49 392.918 3058.22 391.956C3055.92 383.782 3050.23 374.051 3043.36 366.553C3041.52 364.538 3037.84 361.277 3035.19 359.307C3029.85 355.333 3029.9 355.366 3024.64 352.743C3019.37 350.116 3018.26 349.656 3015.15 348.812C3013.64 348.401 3010.94 347.652 3009.15 347.146C3004.17 345.739 2988.38 345.868 2983.14 347.358C2981.07 347.945 2978.49 348.672 2977.39 348.974C2976.29 349.276 2974.93 349.726 2974.38 349.973C2973.83 350.22 2972.15 350.927 2970.63 351.543C2963.8 354.328 2954.74 360.789 2948.97 366.996C2941.16 375.392 2934.84 387.025 2933.08 396.204C2932.77 397.853 2932.32 400.214 2932.09 401.451C2931.87 402.688 2931.68 406.399 2931.69 409.697C2931.71 421.65 2933.96 431.136 2939.19 441.303C2945.28 453.153 2955.03 462.877 2966.81 468.853C2973.22 472.1 2977.65 473.611 2984.39 474.847C2986.04 475.149 2987.84 475.5 2988.39 475.627C2990.27 476.06 3004.89 475.548 3007.65 474.953Z" fill="#FFFEFF" stroke="#FFFEFF" stroke-linecap="round" stroke-linejoin="round"/>
<path d="M2732.79 522.629C2722.09 521.398 2715.36 520.166 2712.28 518.873C2711.73 518.642 2710.49 518.306 2709.53 518.125C2708.57 517.945 2707.28 517.482 2706.67 517.097C2706.06 516.712 2705.26 516.396 2704.89 516.396C2703.47 516.396 2689.37 509.33 2685.85 506.852C2684.52 505.917 2683.06 504.927 2682.6 504.652C2679.14 502.577 2672.72 497.208 2667.09 491.697C2658.87 483.642 2653.38 476.712 2648.07 467.67C2646.62 465.196 2645.24 462.834 2644.99 462.422C2644.75 462.01 2644.07 460.66 2643.49 459.424C2642.91 458.187 2642.22 456.837 2641.96 456.425C2641.7 456.013 2641.36 455.338 2641.21 454.926C2641.05 454.513 2640.57 453.277 2640.15 452.177C2639.74 451.078 2639.1 449.616 2638.74 448.929C2638.38 448.241 2637.93 446.834 2637.74 445.8C2637.55 444.766 2637.19 443.797 2636.94 443.646C2636.7 443.496 2636.5 442.809 2636.5 442.119C2636.5 441.43 2636.26 440.422 2635.97 439.878C2634.52 437.181 2632.52 424.445 2632.16 415.73C2631.94 410.153 2632.06 407.915 2632.77 404.485C2634.67 395.387 2640.17 388.743 2647.85 386.289C2650.64 385.396 2662.38 385.082 2663.28 385.876C2663.55 386.106 2664.87 386.703 2666.23 387.203C2667.94 387.834 2669.74 389.156 2672.11 391.517C2673.98 393.389 2675.51 395.191 2675.51 395.523C2675.51 395.854 2675.81 396.48 2676.18 396.914C2677.83 398.864 2679.37 405.496 2680.5 415.445C2681.37 423.12 2682.83 430.115 2684.04 432.402C2684.26 432.833 2684.97 434.534 2685.61 436.183C2689.5 446.228 2699.79 458.354 2710.03 464.968C2715.99 468.82 2718.02 469.885 2723.28 471.939C2724.66 472.475 2730.75 474.2 2733.79 474.914C2741.1 476.631 2754.35 475.892 2763.55 473.253C2782.9 467.699 2799.1 454.201 2807.72 436.439C2809.51 432.742 2809.81 431.652 2809.97 428.094C2810.14 424.561 2810.01 423.677 2808.99 421.642C2808.12 419.887 2799.45 410.955 2775.12 386.753C2726.93 338.817 2725.11 336.774 2723.25 328.522C2722.47 325.06 2722.47 324.578 2723.24 321.378C2724.29 317.044 2726.33 313.257 2730.06 308.76C2733.97 304.03 2735.45 303.025 2739.45 302.351C2746.29 301.203 2751.99 301.774 2756.97 304.105C2763.7 307.259 2765.28 308.736 2794.41 338.995C2812.22 357.506 2823.5 368.466 2839.11 382.441C2855.46 397.076 2860.81 406.776 2860.78 421.721C2860.76 427.405 2859.15 436.105 2857.34 440.183C2856.98 441.007 2856.56 442.132 2856.42 442.682C2856.29 443.231 2855.7 444.918 2855.11 446.43C2854.53 447.942 2853.47 450.865 2852.76 452.927C2852.05 454.988 2851.27 456.888 2851.03 457.15C2850.78 457.411 2850.58 458.151 2850.58 458.794C2850.58 459.437 2850.16 460.573 2849.65 461.318C2849.14 462.062 2846.95 465.371 2844.78 468.669C2839.37 476.933 2836.77 480.317 2831.19 486.41C2823.57 494.732 2813.41 503.444 2807.57 506.672C2806.61 507.204 2805.48 507.901 2805.07 508.22C2804.16 508.924 2794.1 513.988 2791.31 515.146C2782.7 518.721 2770.61 521.647 2759.3 522.89C2753.3 523.549 2739.61 523.414 2732.79 522.629Z" fill="#FFFEFF" stroke="#FFFEFF" stroke-linecap="round" stroke-linejoin="round"/>
<path d="M3229.44 523.152C3221.38 522.053 3212.65 520.172 3209.48 518.854C3208.93 518.625 3207.53 518.197 3206.37 517.903C3205.22 517.609 3204.13 517.15 3203.97 516.882C3203.8 516.615 3203.34 516.396 3202.95 516.396C3202.55 516.396 3200.82 515.746 3199.1 514.951C3197.38 514.157 3195.74 513.426 3195.46 513.327C3194.02 512.822 3186.48 508.368 3182.97 505.948C3168.51 495.987 3154.05 480.601 3144.43 464.921C3141.69 460.451 3141.57 460.235 3140.39 457.674C3139.88 456.575 3139.21 455.338 3138.9 454.926C3138.59 454.513 3138.22 453.726 3138.06 453.177C3137.91 452.627 3137.3 450.94 3136.7 449.428C3135.29 445.836 3134.33 441.8 3133.46 435.836C3133.08 433.17 3132.41 428.98 3131.99 426.524C3131.15 421.644 3131.12 413.566 3131.68 346.978L3131.97 312.744L3133.56 308.996C3134.73 306.263 3135.78 304.691 3137.46 303.194C3139.68 301.216 3140.78 300.743 3147.75 298.786C3151.24 297.805 3156.34 297.778 3159.53 298.725C3160.87 299.122 3162.55 299.569 3163.27 299.718C3163.99 299.866 3166.36 301.186 3168.53 302.65C3173.23 305.828 3176.18 309.665 3177.69 314.548C3178.67 317.753 3178.71 319.249 3178.87 365.273C3179.06 418.869 3178.94 416.936 3182.76 429.938C3186.58 442.94 3194.64 454.984 3204.73 462.774C3207.79 465.139 3214.49 469.419 3215.13 469.419C3215.29 469.419 3216.33 469.857 3217.45 470.392C3220.26 471.736 3227.02 473.965 3229.74 474.44C3237.5 475.799 3240.03 475.999 3246.49 475.767C3250.35 475.629 3254.85 475.247 3256.5 474.918C3260.06 474.208 3268.09 471.725 3271.25 470.353C3288.32 462.958 3302.39 445.822 3307.1 426.689C3309.46 417.117 3309.4 418.426 3309.73 365.219C3310.07 310.507 3309.93 313.382 3312.7 307.519C3314.4 303.935 3318.84 300.387 3322.78 299.473C3323.74 299.249 3325.48 298.827 3326.64 298.534C3328.71 298.013 3330.02 298.126 3338.03 299.515C3347.85 301.218 3352.84 305.474 3355.88 314.743C3356.78 317.489 3356.89 319.953 3357.29 343.979C3357.87 379.075 3357.87 415.8 3357.29 423.267C3356.87 428.689 3355.35 436.314 3354.27 438.412C3354.05 438.836 3353.41 440.703 3352.83 442.559C3352.26 444.416 3351.58 446.327 3351.33 446.807C3351.08 447.287 3350.04 449.703 3349.02 452.177C3345.28 461.259 3339.45 471.924 3334.82 478.165C3333.8 479.539 3332.38 481.45 3331.67 482.413C3326.88 488.849 3318.06 497.287 3310.27 502.882C3304.62 506.939 3302.56 508.166 3296.26 511.203C3293.65 512.465 3291.12 513.7 3290.64 513.947C3289.76 514.408 3287.63 515.193 3282.76 516.859C3273.95 519.873 3265.73 521.649 3253.76 523.124C3246.48 524.021 3235.9 524.034 3229.44 523.152Z" fill="#FFFEFF" stroke="#FFFEFF" stroke-linecap="round" stroke-linejoin="round"/>
<path d="M927.359 523.109C917.371 521.288 911.138 514.743 907.965 502.742C907.305 500.244 907.274 498.602 907.75 491.125C908.089 485.793 908.304 464.291 908.304 435.674V388.932L910.001 385.572C912.07 381.474 916.998 376.566 920.862 374.753C926.821 371.956 926.267 371.982 985.953 371.686C1021.21 371.511 1041.92 371.225 1043.55 370.891C1044.96 370.603 1047.07 370.171 1048.24 369.931C1049.41 369.691 1050.81 369.263 1051.33 368.981C1051.86 368.699 1052.76 368.467 1053.34 368.467C1053.91 368.467 1054.77 368.256 1055.24 367.998C1055.72 367.741 1057.46 366.925 1059.11 366.186C1067 362.658 1076.15 354.96 1080.51 348.182C1082.88 344.512 1086.37 337.543 1086.37 336.506C1086.37 336.164 1086.69 335.175 1087.09 334.309C1087.48 333.443 1087.91 331.947 1088.06 330.985C1088.2 330.023 1088.57 327.887 1088.89 326.238C1089.93 320.811 1089.12 309.699 1087.29 304.248C1087.01 303.423 1086.61 302.035 1086.39 301.162C1085.71 298.414 1081.42 290.345 1078.72 286.731C1075.5 282.423 1070.61 277.599 1066.46 274.639C1063.4 272.447 1054.93 268.015 1053.82 268.015C1053.51 268.015 1052.55 267.71 1051.69 267.336C1049.39 266.344 1043.82 265.16 1038.11 264.447C1032.46 263.743 1023.74 263.64 1004.09 264.047C992.559 264.286 990.568 264.438 990.443 265.086C990.356 265.535 998.418 273.801 1010.15 285.297C1032.96 307.64 1039.48 314.567 1042.44 319.629C1045.4 324.676 1045.84 326.271 1045.9 332.022C1045.95 336.718 1045.84 337.293 1044.39 340.238C1042.35 344.372 1037 349.391 1031.12 352.679L1026.73 355.131L1021.96 354.507C1019.34 354.165 1016.49 353.585 1015.64 353.221C1014.79 352.856 1013.38 352.294 1012.51 351.972C1008.62 350.535 1004.16 346.505 980.091 322.633C955.065 297.816 945.805 288.884 934.599 278.75C931.554 275.996 928.485 273.184 927.78 272.503C927.074 271.821 925.161 270.15 923.528 268.788C916.052 262.554 909.905 255.09 908.067 250.011C905.673 243.401 904.993 238.523 905.77 233.525C906.434 229.252 907.509 227.733 912.055 224.653C918.71 220.144 925.497 217.518 932.452 216.761C941.246 215.804 934.511 215.834 997.84 216.468C1038.86 216.877 1041.98 216.97 1047.61 217.95C1057.96 219.752 1059.42 220.048 1063.06 221.095C1065.02 221.656 1067.4 222.333 1068.37 222.6C1069.33 222.866 1070.57 223.296 1071.12 223.556C1071.67 223.815 1073.58 224.575 1075.37 225.244C1091.92 231.441 1107.46 244.212 1118.76 260.909C1119.93 262.636 1120.89 264.193 1120.89 264.369C1120.89 264.545 1121.21 265.043 1121.6 265.477C1124.45 268.647 1134.89 292.609 1134.89 295.984C1134.89 296.481 1135.23 297.532 1135.64 298.319C1136.05 299.106 1136.39 300.875 1136.4 302.249C1136.41 303.623 1136.75 306.772 1137.15 309.246C1138.11 315.066 1138.1 324.364 1137.13 329.601C1135.61 337.8 1134.26 343.399 1132.49 348.727C1131 353.222 1130.37 354.807 1128.06 359.971C1121.33 374.966 1110.31 389.007 1097.63 398.739C1094.52 401.124 1088.39 405.17 1085.62 406.656C1084.25 407.396 1082.79 408.21 1082.37 408.464C1081.66 408.905 1078.03 410.537 1072.62 412.848C1071.24 413.437 1068.88 414.279 1067.37 414.722C1065.85 415.164 1064.11 415.727 1063.49 415.973C1061.83 416.636 1056.04 417.966 1052.61 418.475C1050.96 418.719 1048.48 419.171 1047.11 419.479C1045.39 419.865 1031.56 420.064 1002.75 420.119C961.359 420.198 960.873 420.211 959.512 421.226C958.755 421.791 957.672 422.874 957.104 423.633C956.091 424.989 956.068 425.665 955.755 462.833C955.581 483.634 955.274 501.387 955.073 502.284C954.872 503.181 954.508 504.037 954.265 504.188C954.021 504.338 953.822 505.049 953.822 505.768C953.822 508.056 950.285 514.408 947.332 517.423C944.024 520.801 941.354 522.193 936.315 523.167C932.008 524 932.252 524.001 927.359 523.109Z" fill="#FFFEFF" stroke="#FFFEFF" stroke-linecap="round" stroke-linejoin="round"/>
<path d="M2743.45 438.393C2739.96 437.999 2734.31 435.378 2730.45 432.355C2726.33 429.131 2641.5 344.688 2639.41 341.728C2633.95 334.008 2631.73 326.695 2632.15 317.885C2632.41 312.62 2633.11 308.023 2633.93 306.247C2634.19 305.697 2634.88 303.673 2635.48 301.749C2636.07 299.825 2636.74 297.801 2636.96 297.251C2637.18 296.702 2637.87 294.902 2638.48 293.253C2642.41 282.683 2649.29 267.529 2653.45 260.269C2655.55 256.593 2662.9 248.979 2670.26 242.846C2678.66 235.851 2687.86 230.12 2696.02 226.81C2697.81 226.085 2699.72 225.303 2700.27 225.074C2703.17 223.865 2705.48 223.022 2707.28 222.522C2708.38 222.216 2710.4 221.633 2711.78 221.227C2719.68 218.894 2733.9 217.084 2744.5 217.06C2753.02 217.04 2767.07 218.136 2769.55 219.014C2770.24 219.257 2772.03 219.582 2773.52 219.735C2775.93 219.982 2784.62 222.379 2787.31 223.54C2791.65 225.413 2793.27 226.036 2796.31 227.535C2797.25 227.535 2804.72 231.837 2810.07 235.464C2824.52 245.258 2837.16 258.891 2846.75 275.012C2848.48 277.915 2853.59 288.331 2853.59 288.949C2853.59 289.21 2853.91 290.061 2854.3 290.839C2855.2 292.648 2856.24 295.522 2857.25 299.001C2860.65 310.784 2861.22 314.59 2861.28 325.657C2861.34 335.92 2861.49 335.058 2858.41 342.223C2857.02 345.443 2851.63 350.916 2848.33 352.451C2842.89 354.984 2837.54 355.586 2832.08 354.28C2822.57 352.006 2815.88 343.616 2814.1 331.735C2813.42 327.191 2812.36 321.995 2811.34 318.241C2810.89 316.592 2810.34 314.538 2810.11 313.676C2808.86 308.921 2804.21 298.327 2801.85 294.851C2801.14 293.811 2800.56 292.847 2800.56 292.71C2800.56 292.149 2796.34 286.806 2793.5 283.768C2790.54 280.604 2784.34 275.606 2781.31 273.939C2774.37 270.119 2766.65 267.32 2759.05 265.867C2755.76 265.238 2752.72 265.102 2745.6 265.266C2733.28 265.549 2728.45 266.521 2720.16 270.389C2716.88 271.916 2710.86 275.606 2708.53 277.512C2707.29 278.524 2705.87 279.57 2705.38 279.837C2703.92 280.628 2692.6 292.018 2690.2 295.113C2685.89 300.673 2683.75 306.712 2684.38 311.524C2684.81 314.762 2687.56 320.452 2690.75 324.685C2692.32 326.773 2708.04 342.712 2726.85 361.294C2745.18 379.395 2761.44 395.785 2763 397.717C2767.4 403.192 2770.55 410.634 2770.55 415.583C2770.55 421.754 2767.82 428.026 2763.14 432.612C2757.82 437.815 2752.41 439.403 2743.45 438.393Z" fill="#FFFEFF" stroke="#FFFEFF" stroke-linecap="round" stroke-linejoin="round"/>
<path d="M357.973 421.518C356.217 419.432 355.82 416.695 356.797 413.408C357.229 411.954 357.586 409.963 357.59 408.982C357.594 408.001 357.921 406.299 358.318 405.2C358.715 404.1 359.049 402.26 359.061 401.109C359.073 399.959 359.344 398.384 359.663 397.611C359.981 396.837 360.405 394.967 360.603 393.455C360.946 390.842 361.333 388.698 362.591 382.46C362.895 380.949 363.319 378.475 363.532 376.963C363.933 374.117 364.632 370.213 365.59 365.469C365.895 363.957 366.327 361.258 366.55 359.472C366.956 356.216 367.565 352.615 368.579 347.477C369.233 344.16 370.439 336.528 371.066 331.735C371.317 329.811 371.875 326.896 372.306 325.258C372.736 323.62 373.089 321.474 373.089 320.49C373.089 319.506 373.426 317.406 373.839 315.823C374.252 314.24 374.589 312.092 374.589 311.05C374.589 310.007 374.924 308.051 375.334 306.701C375.744 305.352 376.089 303.686 376.101 302.999C376.134 301.125 378.601 297.882 380.852 296.752C382.355 295.997 383.823 295.755 386.844 295.764C392.951 295.781 401.931 296.494 406.03 297.288C408.054 297.68 410.594 298.001 411.674 298.001C412.753 298.001 414.445 298.338 415.433 298.751C416.42 299.163 417.996 299.5 418.934 299.5C419.872 299.5 421.448 299.838 422.435 300.25C423.423 300.662 424.676 301 425.22 301C425.764 301 426.918 301.298 427.785 301.664C428.652 302.029 430.599 302.722 432.112 303.204C436.101 304.473 441.029 306.432 443.617 307.774C444.855 308.416 446.881 309.425 448.119 310.015C456.112 313.827 466.196 321.812 468.079 325.823C468.444 326.6 468.943 327.574 469.188 327.987C470.507 330.206 471.519 333.742 472.09 338.122C472.666 342.541 472.317 346.538 471.035 350.226C470.748 351.051 470.402 352.336 470.266 353.084C470.13 353.831 469.705 354.701 469.323 355.019C468.94 355.336 468.627 356.022 468.627 356.544C468.627 357.066 468.012 358.444 467.261 359.606C465.242 362.733 464.718 363.611 464.2 364.736C462.818 367.736 449.717 380.891 442.471 386.553C435.603 391.921 426.393 398.226 421.712 400.765C420.256 401.555 417.781 402.915 416.21 403.788C414.639 404.66 412.342 405.857 411.104 406.447C409.866 407.037 408.515 407.729 408.103 407.987C407.69 408.244 407.015 408.581 406.602 408.736C406.189 408.891 404.501 409.674 402.851 410.476C401.2 411.277 399.118 412.077 395.723 413.449C395.241 413.45 394.27 413.753 393.563 414.121C392.857 414.49 391.619 414.945 390.812 415.135C390.005 415.324 388.67 415.788 387.844 416.167C387.019 416.545 384.993 417.242 383.343 417.715C381.692 418.188 379.554 418.855 378.591 419.196C376.209 420.039 372.21 421.041 370.087 421.325C369.124 421.454 368.042 421.796 367.683 422.085C367.324 422.374 365.284 422.711 363.151 422.834C359.316 423.056 359.255 423.04 357.973 421.518Z" fill="#FD853A"/>
</g>
<defs>
<clipPath id="clip0_3221_791">
<rect width="3604" height="744" fill="white"/>
</clipPath>
</defs>
</svg>
